<?xml version="1.0" encoding="UTF-8"?>
<svg id="Layer_2" data-name="Layer 2" xmlns="http://www.w3.org/2000/svg" viewBox="0 0 322.88 320.84">
  <defs>
    <style>
      .cls-1, .cls-2, .cls-3, .cls-4, .cls-5, .cls-6, .cls-7, .cls-8, .cls-9, .cls-10, .cls-11, .cls-12 {
        stroke-width: 0px;
      }

      .cls-2 {
        fill: #4c78f2;
      }

      .cls-3 {
        fill: #5698ff;
      }

      .cls-4 {
        fill: #1c1c1e;
      }

      .cls-5 {
        fill: #d67f5c;
      }

      .cls-6 {
        fill: #bf9284;
      }

      .cls-7 {
        fill: #bf5d0f;
      }

      .cls-8 {
        fill: #af4700;
      }

      .cls-9 {
        fill: #b7b7b7;
      }

      .cls-10 {
        fill: #eb9872;
      }

      .cls-11 {
        fill: #046f30;
      }

      .cls-12 {
        fill: #048c30;
      }
    </style>
  </defs>
  <g id="OBJECTS">
    <g>
      <polygon class="cls-10" points="56.58 85.03 77.56 126.5 106.04 116.8 122.04 107.02 141.02 102.85 128.89 53.25 56.58 85.03"/>
      <g>
        <g>
          <path class="cls-10" d="m111.82,60.05l38.06-14.73-31.27-26.9,16.05-11.71s19.02,8.61,37.21,22.12c18.19,13.5,14.53,21.61,5.87,29.64-8.65,8.03-53.65,30.05-53.65,30.05l-12.27-28.46Z"/>
          <path class="cls-5" d="m123.2,22.01l9.39-6.07s17.97,24.14,17.29,29.38c-17.46-15.69-26.68-23.31-26.68-23.31Z"/>
        </g>
        <path class="cls-5" d="m136,82.57l-2.51-10.35s49.9-24.18,51.21-26.76c-.07,10.33-15.63,18.62-15.63,18.62l-33.07,18.49Z"/>
        <path class="cls-10" d="m119.1,18.93c-1.36-1.02-2.73-2.04-4.09-3.06-.83-.62-1.69-1.27-2.17-2.18s-.47-2.13.3-2.71c-1.18-.67-1.96-2-1.95-3.3,0-1.3.81-2.52,1.99-3.02.56-.24,1.19-.33,1.69-.67.56-.38.88-1.03,1.45-1.4.98-.63,2.39-.24,3.48-.68.51-.2.92-.57,1.37-.88.88-.59,1.93-.95,3.02-1.02,3.25-.21,6.25,2.01,8.89,4.11,1.71,1.36,3.43,2.72,5.14,4.08.53.42,1.06.84,1.6,1.23l-11.96,8.67-8.76.83Z"/>
        <path class="cls-4" d="m124.86,12.25s.01-.02.02-.03c.17-.23.11-.56-.12-.72-1.1-.79-3.06-.57-4.46-.26l.27-.33c.37-.44.51-.91.42-1.37-.17-.86-1.07-1.45-2.01-1.96-1.33-.71-4.75,1.86-6.16,3-.22.18-.26.51-.08.73.18.22.51.26.73.08,2.16-1.74,4.55-3.12,5.02-2.89.34.18,1.39.74,1.49,1.24.01.05.04.22-.2.51l-2.51,3.03,1.75-.61c1.05-.36,4.01-1.13,5.14-.33.22.16.53.12.7-.09Z"/>
        <path class="cls-4" d="m117.14,8.74c.17-.2.16-.51-.03-.7-.86-.87-2.38-3.59-2.39-3.62-.14-.25-.46-.34-.71-.2-.25.14-.34.46-.2.71.07.12,1.61,2.88,2.57,3.85.2.2.53.2.73,0,.01-.01.02-.03.03-.04Z"/>
        <path class="cls-4" d="m122.76,10.94c.78-.94.78-2.22-.03-3.6-.77-1.31-3.27-5.17-3.38-5.33-.16-.24-.48-.31-.72-.15-.24.16-.31.48-.15.72.03.04,2.6,4.01,3.36,5.29.51.87.86,2.06-.41,2.86-.24.15-.32.47-.16.72.15.24.47.32.72.17.31-.2.57-.42.78-.67Z"/>
        <path class="cls-4" d="m126.71,8.96c.49-.59.78-1.25.75-1.91-.06-1.66-3.55-5.92-4.24-6.75-.18-.22-.51-.25-.73-.07-.23.19-.25.51-.07.73,1.53,1.83,3.97,5.12,4,6.13.04,1.2-1.93,2.75-3.83,3.02-.28.04-.48.3-.44.59.04.28.3.48.59.44,1.46-.2,3.06-1.06,3.97-2.17Z"/>
      </g>
      <g>
        <g>
          <g>
            <path class="cls-10" d="m70.58,78.66l-37.9,15.13,4.59-41-19.73,2.35s-8.07,19.26-12.19,41.53c-4.13,22.27,4.07,25.72,15.88,25.7,11.8-.01,59.75-14.52,59.75-14.52l-10.39-29.2Z"/>
            <path class="cls-5" d="m36.35,58.55l-11.01,1.95s3.27,29.91,7.34,33.28c2.1-23.38,3.67-35.24,3.67-35.24Z"/>
          </g>
          <path class="cls-10" d="m37.25,53.5c.3-1.68.61-3.35.91-5.03.18-1.02.37-2.08.11-3.07-.26-.99-1.1-1.88-2.07-1.78.4-1.29.07-2.8-.82-3.75-.89-.95-2.3-1.3-3.51-.86-.57.2-1.1.57-1.7.66-.67.1-1.35-.16-2.02-.04-1.15.21-1.91,1.45-3.01,1.88-.51.2-1.07.21-1.6.29-1.05.16-2.06.62-2.9,1.31-2.52,2.06-3.21,5.73-3.71,9.06-.33,2.16-.66,4.33-.98,6.49-.1.67-.2,1.33-.33,2l14.66-1.8,6.98-5.36Z"/>
          <path class="cls-4" d="m28.49,52.53s-.02,0-.03,0c-.28-.06-.46-.33-.41-.61.27-1.33,1.85-2.5,3.09-3.23l-.42-.06c-.57-.08-.99-.32-1.24-.72-.46-.74-.2-1.79.14-2.8.49-1.43,4.75-1.87,6.56-2,.28-.02.53.2.55.48.02.29-.2.53-.48.55-2.77.19-5.46.81-5.65,1.3-.13.37-.51,1.49-.24,1.92.03.05.12.19.49.24l3.9.52-1.7.75c-1.02.45-3.71,1.9-3.98,3.26-.05.27-.31.45-.58.41Z"/>
          <path class="cls-4" d="m31.75,44.7c-.26-.03-.46-.26-.45-.53.04-1.22-.7-4.25-.71-4.28-.07-.28.1-.56.38-.63.28-.07.56.1.63.38.03.13.78,3.2.74,4.56,0,.29-.25.51-.54.5-.02,0-.04,0-.05,0Z"/>
          <path class="cls-4" d="m29.13,50.14c-1.21-.16-2.09-1.1-2.43-2.65-.33-1.48-1.12-6.01-1.15-6.21-.05-.28.14-.55.42-.6.28-.05.55.14.6.42,0,.05.82,4.7,1.15,6.16.22.98.77,2.1,2.25,1.82.28-.05.55.13.61.41.05.28-.13.55-.41.61-.36.07-.71.08-1.03.04Z"/>
          <path class="cls-4" d="m24.89,51.38c-.76-.1-1.42-.38-1.85-.89-1.09-1.26-1.43-6.75-1.49-7.84-.02-.29.2-.53.49-.55.29-.02.53.2.55.49.13,2.38.58,6.45,1.24,7.21.79.91,3.28.7,4.86-.4.23-.16.56-.11.72.13.16.24.11.56-.13.72-1.21.85-2.97,1.3-4.39,1.12Z"/>
        </g>
        <path class="cls-5" d="m69.6,110.84l-4.76-11.98s-26.58,14.34-48.6,23.22c12.58,1.38,53.36-11.24,53.36-11.24Z"/>
      </g>
      <g>
        <g>
          <path class="cls-10" d="m51.06,279.15s21.32,28.57,21.32,28.57c.48.65,6.15.04,6.95.05,3.5.03,6.97-.6,10.42-.04,1.18-8.47-5.57-17.3-9.26-24.57-2.33-4.58-4.65-9.16-6.98-13.75l-22.46,9.74Z"/>
          <g>
            <path class="cls-1" d="m42.8,320.42l47.36.34s1.44-21.3-.7-22.18c-5.65,6.85-16.01,10.65-22.4,1.56,0,0-23.33,11.24-28.07,12.5-4.74,1.26-5.22,7.28-5.22,7.28l9.04.5Z"/>
            <path class="cls-9" d="m34.93,316.06c-1.01,1.91-1.16,3.87-1.16,3.87l9.04.5,47.36.34s.12-1.77.24-4.3l-55.47-.4Z"/>
          </g>
          <path class="cls-5" d="m76.43,275.13l-22.3,8.13c.46.61.95,1.28,1.48,1.98l30.65,8.41-.24-.52c-1.83-3.51-3.95-6.88-5.52-9.97-1.36-2.67-2.72-5.35-4.07-8.02Z"/>
        </g>
        <g>
          <g>
            <path class="cls-1" d="m292.52,295.6s24.4,14.03,27.05,16.18c2.65,2.15,4.75,6.43,2.07,9.07-43.15-.31-50.77-2.49-50.77-2.49,0,0-2.59-10.14-2.53-19.2l24.18-3.56Z"/>
            <path class="cls-9" d="m270.77,319.9s7.72.63,50.86.94c1.62-1.59,1.49-3.78.56-5.74l-52.13-.37c.45,2.22.71,5.17.71,5.17Z"/>
          </g>
          <g>
            <path class="cls-10" d="m248.22,283.58l26.54,20.86s12.05.95,17.71-8.48l-25.62-29.46-18.64,17.09Z"/>
            <polygon class="cls-5" points="266.85 266.49 248.22 283.58 264.18 296.12 272.83 273.42 272.85 273.39 266.85 266.49"/>
          </g>
        </g>
        <g>
          <path class="cls-3" d="m255.28,251.25l-107.57-120.8-28.9,7.54.03.1-28.63,6.97s-.01,0-.02.01-.04.02-.06.05c-.36.25-4.66,3.35-4.86,3.49-.02.01-.04.02-.06.04-.35.25-73.97,41.85-83.76,55.66-3.46,4.89-1.37,10.32,13.73,32.82h0c16.88,21.65,21.68,27.49,37.35,47.03l24.47-8.92-11.71,4.27-39.55-69,81.25-43.33,20.5,22.53c18.28,17.57,40.48,28.38,61.7,41.13,19.19,26.29,40.99,39.91,62.95,57.94l21.45-17.11-18.31-20.42Z"/>
          <path class="cls-2" d="m25.72,210.51l39.55,69,11.71-4.27c-6.16-21.03-14.74-40.46-23.39-52.08l73.88-33.45-20.5-22.53-81.25,43.33Z"/>
        </g>
      </g>
      <g>
        <path class="cls-12" d="m87.31,147.24l-14.53-26.85s5.73-7.08,2.84-20.57c-2.32-10.76-7.63-20.31-7.63-20.31l20.72-8.03,9.08-5.53,16.3-6.73s.22,10.45,4.35,17.05c4.82,7.69,19.88,14.76,19.88,14.76l11.08,42.03-62.1,14.19Z"/>
        <path class="cls-11" d="m87.31,147.24l28.23-6.45-26.3-69.63-.53.32-20.72,8.03s5.31,9.55,7.63,20.31c2.89,13.5-2.84,20.57-2.84,20.57l14.53,26.85Z"/>
      </g>
      <g>
        <path class="cls-10" d="m75.15,57.28l2.13,18.42s2.65,9.7,16.54,4.85c12.09-4.22,5.81-15.03,5.81-15.03l-11.52-14.29-12.96,6.04Z"/>
        <path class="cls-5" d="m93.88,58.38l-5.77-7.15-12.96,6.04,1.1,9.53c2.97,1.04,6.3,1.11,9.27.04,3.86-1.38,6.97-4.61,8.35-8.46Z"/>
      </g>
      <g>
        <path class="cls-6" d="m63.59,50.37c.92-.39,1.89-.37,2.67-.02h0c.35.35.64.77.84,1.24.45,1.04.83,2.28.8,3.32-.17.34-.45.61-.88.79"/>
        <path class="cls-10" d="m69.88,28.11h13.99c3.7,0,6.7,3,6.7,6.7v15.04c0,6.34-5.15,11.49-11.49,11.49h-4.42c-6.34,0-11.49-5.15-11.49-11.49v-15.04c0-3.7,3-6.7,6.7-6.7Z" transform="translate(-11.41 33.97) rotate(-23.24)"/>
        <path class="cls-8" d="m92.25,48.47c-.9-3.36-2.33-6.46-4.03-9.46-.78-1.36-2.55-3.91-4.36-2.53-3.82,2.9-7.13,5.78-12.48,6.74-2.7.48-7.22-.3-7.7-1.39.36.82.26,1.75.54,2.6.23.7.51,1.31.64,2.06.14.87.27,1.74.52,2.59.62,2.16,1.43,4.05,2.02,6.04.24.8.74,2.3,1.35,2.99-1.7-1.59-3.39-3.31-4.75-5.18-1.33-1.8-2.49-3.72-3.89-5.48-2.13-2.68-3.42-6.01-3.67-9.42-.15-2.07-.33-5.46.57-7.41.03-.06.06-.13.09-.18,1.22-2.42,4.27-4.21,6.72-5.01,1.39-.47,2.86-.71,4.34-.68.48,0,3.59.78,3.74.67,2.07-1.73,4.61-3.16,7.31-3.04,2.01.08,3.89,1.04,5.41,2.38.4.35.77.72,1.12,1.13,1.53,1.75,2.79,3.83,3.79,6.05,1.37,3.06,2.05,6.52,2.53,9.81.17,1.1.3,2.2.33,3.31.03.98-.35,2.5-.1,3.42Z"/>
        <path class="cls-7" d="m84.58,24.75c-1.6,1.69-3.4,3.18-5.37,4.4-3.62,2.25-8.48,3.69-12,1.29-2.33,2.29-6.24,2.17-9.11.61-.36-.2-.71-.4-1.04-.63,1.22-2.42,4.27-4.21,6.72-5.01,1.39-.47,2.86-.71,4.34-.68.48,0,3.59.78,3.74.67,2.07-1.73,4.61-3.16,7.31-3.04,2.01.08,3.89,1.04,5.41,2.38Z"/>
        <path class="cls-12" d="m90.6,31.58l1.24,2.89c.38.9.14,1.91-.57,2.52-.17.16-.37.28-.59.38l-29.05,12.48c-1.12.48-2.42-.04-2.9-1.16l-1.24-2.88c-.41-.96-.09-2.04.7-2.63.13-.11.29-.21.45-.28l29.05-12.48c1.12-.48,2.42.04,2.9,1.16Z"/>
        <path class="cls-11" d="m91.27,36.99c-.17.16-.37.28-.59.38l-29.05,12.48c-1.12.48-2.42-.04-2.9-1.16l-1.24-2.88c-.41-.96-.09-2.04.7-2.63,2.41-.45,4.89-.72,7.13-1.15,4.4-.85,8.79-1.71,13.2-2.57,4.26-.82,8.5-1.64,12.75-2.47Z"/>
      </g>
    </g>
  </g>
</svg>