<?xml version="1.0" encoding="UTF-8"?>
<svg id="Layer_2" data-name="Layer 2" xmlns="http://www.w3.org/2000/svg" viewBox="0 0 140.13 115.23">
  <defs>
    <style>
      .cls-1 {
        fill: #f6f6f6;
      }

      .cls-1, .cls-2, .cls-3, .cls-4, .cls-5, .cls-6, .cls-7, .cls-8, .cls-9 {
        stroke-width: 0px;
      }

      .cls-2 {
        fill: #291b30;
      }

      .cls-3 {
        fill: #826b80;
      }

      .cls-4 {
        fill: #3b2645;
      }

      .cls-5 {
        fill: #c6c6c6;
      }

      .cls-6 {
        fill: #e0855c;
      }

      .cls-7 {
        fill: #ab8da8;
      }

      .cls-8 {
        fill: #e8cee5;
      }

      .cls-9 {
        fill: #f5a784;
      }
    </style>
  </defs>
  <g id="Layer_1-2" data-name="Layer 1">
    <g>
      <path class="cls-5" d="m139.39,113.39c-1.07-.12-2.14-.2-3.23-.25-.3-.01-9.42.06-11.44,0-.04,0-.08,0-.12,0-.3-.01-76.32-.05-76.32-.05-.07,0-.13,0-.2.01-.03,0-.06,0-.08,0-3.41,0-11.28-.02-11.28-.02-.07,0-.13,0-.2.01-.08,0-.16.01-.24.02-1.63,0-22.23-.03-22.23-.03-.07,0-.13,0-.2.01-.03,0-.06,0-.08,0-3.41,0-11.28-.02-11.28-.02-.07,0-.13,0-.2.01-.47.03-.94.07-1.4.12-1.2.12-1.2,1.74,0,1.86.47.05.93.09,1.4.13.06,0,.12,0,.18.01,0,0,7.66-.02,11.29-.02.03,0,.06,0,.09,0,.06,0,.12,0,.18.01,0,0,14.96-.03,22.23-.04.08,0,.17.02.25.02.06,0,.12,0,.18.01,0,0,7.66-.02,11.29-.02.03,0,.06,0,.09,0,.06,0,.12,0,.18.01,0,0,76.03-.04,76.34-.05.04,0,.08,0,.12,0,2.01-.05,11.13.02,11.44,0,1.08-.05,2.15-.14,3.22-.25.98-.11.99-1.42,0-1.53Z"/>
      <path class="cls-1" d="m94.16.87c5.21,2.61,5.42,9.93,8.71,14.74,6.14,8.98,20.75,6.83,28.69,14.26,4.19,3.92,5.81,10.16,4.78,15.81-1.03,5.65-4.47,10.68-8.88,14.35-2.92,2.42-6.67,5.14-6.22,8.91.16,1.34.87,2.55,1.37,3.8,2.24,5.63,0,12.31-4.18,16.69-4.19,4.38-10,6.82-15.82,8.53-5.11,1.5-10.36,2.52-15.66,3.04-2.92.29-5.92.44-8.61,1.59-2.7,1.15-4.91,3.21-7.51,4.58-6.2,3.27-13.71,2.21-20.62,1.02-8.9-1.53-17.8-3.12-26.51-5.51-3.26-.9-6.59-1.95-9.18-4.12-2.59-2.17-4.31-5.72-3.38-8.98.78-2.74,3.15-4.65,5.08-6.73s3.6-5.01,2.56-7.66c-1.23-3.11-5.23-3.78-8.09-5.51-3.05-1.85-4.98-5.18-5.83-8.64s-.76-7.08-.56-10.65c.18-3.16.46-6.4,1.83-9.24,2.63-5.43,8.78-8.35,14.75-9.19,4.84-.68,7.29-.86,9.91-5.74,3.18-5.93,5.26-12.49,9.29-17.88C44.11,2.93,50.96-1.19,57.43.65c4.07,1.16,7.23,4.43,11.2,5.92,4.52,1.71,8.19.89,11.67-1.96,3.68-3.01,8.98-6.18,13.85-3.74Z"/>
      <path class="cls-9" d="m69.46,79.89c14.24,3,31.98,4.75,31.98,4.75-.42,1.78-.07,5.2.59,8.97,1.31,7.57,3.84,16.56,3.84,16.56,2.61.74,4.54-.77,4.54-.77-.37-7.74,1.7-28.85-2.26-31.3-6.6-4.08-30.47-10.75-34.48-11.03-2.77-.19-5.47.26-6.67,2.33-.5.87-.75,2.04-.61,3.57.02.19.04.38.07.56.82,5.08-3.55,4.96,3,6.35Z"/>
      <g>
        <path class="cls-4" d="m72.82,31.7c-.12.32-.34.57-.47.87-.16.37-.14.82-.29,1.2-.05.1-.39.86-.52.41-.08,0-.17-.01-.25-.02-2.13-.14-4.26-.29-6.37-.52-.6-.07-1.2-.09-1.8-.18-.52-.08-.74-.19-1-.56-.05-.06-.08-.12-.12-.2-.52-.9-.72-1.96-.71-2.98,0-.41.04-.82.16-1.21.12-.42.35-.8.61-1.16.79-1.06,1.93-1.82,3.17-2.29-.07-.34-.64-.55-.85-.83-.25-.35-.4-.77-.37-1.2.03-.31.14-.61.29-.88.44-.76,1.25-1.32,2.13-1.4.78-.07,1.59.24,2.11.82.07.07.13.15.19.24.5.73.54,1.76.07,2.5-.13.21-.3.48-.15.68.07.08.17.12.27.16.82.29,1.63.61,2.31,1.14.91.69,1.55,1.72,1.78,2.83.18.86.1,1.76-.2,2.59Z"/>
        <path class="cls-6" d="m71.74,32.42s.87-1.04,1.73,0c.87,1.04-.61,3.03-1.73,3.12,0,0-.13-2.67,0-3.12Z"/>
        <path class="cls-9" d="m77.84,51.47c-.02.31-.04.62-.07.93-.44,6.22-1.08,13.05-1.31,15.42-.01.17-.08.87-.08.87,0,0-1.41.37-3.62.65-3.1.39-7.76.6-12.33-.65,0,0,0-.07-.02-.2-.16-1.55-1.15-11.37-1.49-13.4-.05-.29-.11-.59-.17-.9-.11-.52-.22-1.04-.35-1.55-.89-3.52-2.33-7.08-2.79-8.15-.08-.2,0-.42.18-.53.64-.4,2.36-1.27,4.75-1.81.16-.03.33-.07.5-.1.48-.08.98-.16,1.5-.21.3-.03.61-.06.92-.07.02,0,.05,0,.07,0,.18-.02.37-.03.56-.03,0,0,0-.62-.03-1.48-.02-.5-.04-1.06-.08-1.64-.04-.84-.13-1.68-.22-2.33,0-.07-.02-.12-.03-.18,0-.07.04-.04.1,0,.05.04.1.08.18.13.02.01.04.03.06.05.16.1.32.21.51.32.29.18.65.37,1.08.54.07.03.14.05.2.08.02.01.05.02.07.03.08.04.17.06.26.09.29.09.59.18.91.25.19.04.39.07.59.1.14.02.28.03.43.05.29.03.6.03.91.01.27-.01.52-.03.77-.08.14-.01.27-.04.4-.07l.27,2.82s.1,1.16.1,1.16h.24c.06,0,.12,0,.2,0,.38,0,.98.02,1.68.06.61.03,1.29.08,1.98.16.2.03.41.05.61.08,1.18.16,2.89.08,2.91.82.04,2.01-.12,5.25-.35,8.76Z"/>
        <path class="cls-6" d="m63.71,36.01c1.01,4.57,5.61,4.26,6.69,3.65l-.19-2.07c-3.79.77-6.5-1.59-6.5-1.59Z"/>
        <path class="cls-9" d="m71.54,29.42c.58.6.62,1.94.67,3.42.15,4.49-1.2,5.9-3.5,6.14-2.3.25-4.7-.64-5.19-4.8-.25-2.08-.51-4.01.25-4.91,1.13-1.34,6-1.69,7.77.14Z"/>
        <path class="cls-9" d="m63.85,33.58s-.7-1.86-1.81-.87c-1.11.99.42,3.8,2.12,3.59,0,0,.23-2.08-.31-2.71Z"/>
        <path class="cls-6" d="m62.55,33.56c.25.04.5.27.67.44.19.17.4.39.49.63.03.08-.08.12-.13.07-.14-.13-.26-.29-.39-.44-.1.1-.19.21-.33.26-.1.04-.18-.09-.13-.17.06-.11.16-.19.27-.26-.18-.14-.39-.24-.53-.4-.06-.06,0-.14.08-.13Z"/>
        <path class="cls-6" d="m68.48,34.57c.2-.03.65.09.74-.12.08-.18-.24-1.22-.28-1.4-.16-.65-.33-1.08-.45-1.86,0-.03.05-.05.07-.02.46,1.03.63,2.3.9,3.39.02.06-.03.12-.09.12-.29,0-.57.06-.86.06-.1,0-.12-.16-.02-.17Z"/>
        <path class="cls-4" d="m69.81,30.65c.28-.14.8-.18,1,.11.04.05-.01.13-.07.13-.14,0-.26-.07-.4-.09-.15-.01-.29.02-.43.07-.13.04-.22-.16-.09-.22Z"/>
        <path class="cls-4" d="m65.72,30.99c.16-.39.85-.43,1.14-.19.07.06.02.16-.05.18-.17.05-.35-.01-.53,0-.16.01-.28.08-.43.13-.07.03-.17-.06-.14-.14Z"/>
        <path class="cls-4" d="m67.14,32.22c-.3-.13-.65-.13-.97-.11-.27.02-.63.06-.82.28-.02.02-.02.06.02.07.26.04.53-.08.8-.1.31-.02.61.04.92.06.1,0,.15-.16.05-.2Z"/>
        <path class="cls-4" d="m70.55,31.94c-.31,0-.62.09-.85.29-.14.12.04.3.18.23.24-.11.45-.2.72-.18.21.01.4.15.61.13.09,0,.14-.09.1-.17-.12-.25-.5-.3-.76-.3Z"/>
        <path class="cls-6" d="m69.66,35.83c-.44.09-.83.23-1.29.16-.42-.07-.72-.32-1.1-.46-.08-.03-.13.07-.1.13.41.79,1.97.9,2.6.38.1-.08-.01-.22-.12-.2Z"/>
      </g>
      <path class="cls-9" d="m126.64,41.26c-2.92-.39-10.76.08-10.93.21-2.09.44-13.85,2.88-16.15,2.96-1.92.07-9.71-.77-15.25-1.38-1.13-.13-2.16-.24-3.04-.35-.49-.05-5.36-.8-5.36-.8-3.16-.35-1.88,1.39-2.16,3.69-.06.45-.02.94.13,1.47.26.93.96,1.66,1.82,2.08,1.01.47,4.24.86,8.08,1.14.47.04.94.07,1.43.1,6.18.4,13.37.51,15.49.2,5.21-.77,13.39-4.01,16.37-5.24.03,0,.06,0,.09-.02,2.5-.85,4.87-.35,7.43-.64.11-.01.23-.04.27-.14.02-.05.01-.11,0-.16-.22-.62-1.18-.32-1.58-.68.34-.3.93-.35,1.35-.56.77-.38,1.47-.92,2.18-1.39.09-.06.19-.14.19-.25,0-.16-.2-.23-.36-.25Z"/>
      <path class="cls-9" d="m10.98,41.26c2.92-.39,10.76.08,10.93.21,2.09.44,13.85,2.88,16.15,2.96,1.92.07,9.71-.77,15.25-1.38,1.13-.13,2.16-.24,3.04-.35.49-.05,5.36-.8,5.36-.8,3.16-.35,1.88,1.39,2.16,3.69.06.45.02.94-.13,1.47-.26.93-.96,1.66-1.82,2.08-1.01.47-4.24.86-8.08,1.14-.47.04-.94.07-1.43.1-6.18.4-13.37.51-15.49.2-5.21-.77-13.39-4.01-16.37-5.24-.03,0-.06,0-.09-.02-2.5-.85-4.87-.35-7.43-.64-.11-.01-.23-.04-.27-.14-.02-.05-.01-.11,0-.16.22-.62,1.18-.32,1.58-.68-.34-.3-.93-.35-1.35-.56-.77-.38-1.47-.92-2.18-1.39-.09-.06-.19-.14-.19-.25,0-.16.2-.23.36-.25Z"/>
      <path class="cls-9" d="m73.11,68.2c.05.2-4.64,22.86-17.53,29.36-8.4,4.24-17.68,7.01-26.92,8.73-.38.07-.76.14-1.14.2-.04,1.03.08,2.34.56,3.25.38.73.82,1.49,1.64,1.79.15.05.31.1.43.2.34.28.2.87-.15,1.12-.35.26-.82.28-1.25.29-1.47.03-3.14.16-3.84-1.31-.44-.91-.78-1.88-1.09-2.84-.5-1.51-1.99-5.59.05-6.13,6.83-1.8,24.11-10.89,27.01-12.54,2.62-1.49,5.27-17.07,9.56-21.84,4.28-4.77,11.95-3.65,12.7-.29Z"/>
      <path class="cls-9" d="m105.47,108.75c.05.47.09.94.12,1.4.06,1.12-.8,2.46.34,3.28.61.44,1.44.37,2.15.42,1.55.09,3.1.03,4.65-.02,1.02-.03,2.03-.08,3.05-.13.84-.04,2.17.1,2.88-.34.09-.06.18-.13.21-.23.02-.09-.01-.19-.06-.27-.18-.31-.55-.47-.89-.59-1.55-.54-3.21-.73-4.75-1.3-1.18-.44-2.35-1.17-3.02-2.27-.48-.78-.52-1.66-1.45-2.08-1.48-.66-3.43.39-3.22,2.13Z"/>
      <path class="cls-8" d="m77.78,52.4c-.44,6.22-1.08,13.05-1.31,15.42-.95.42-2.23.96-3.71,1.53-3.1.39-7.76.6-12.33-.65,0,0,0-.07-.02-.2-.16-1.55-1.15-11.37-1.49-13.4-.05-.29-.11-.59-.17-.9-.11-.52-.22-1.04-.35-1.55.99-1.39,2.47-4.51,2.14-10.49.16-.03.33-.07.5-.1.48-.08.98-.16,1.5-.21.27,2.34,1.37,8.59,5.21,8.49,4.39-.1,4.91-5.54,4.95-8.68.61.03,1.29.08,1.98.16,0,2.3.27,8.67,3.1,10.59Z"/>
      <path class="cls-7" d="m110.43,102.49c-2.61,1.67-6.48.28-6.48.28-3.33-6.16-3.59-17.37-3.59-17.37,0,0-19.08-1.42-26.64-1.42-1.64,0-2.88.33-3.9.92-3.71,2.13-4.6,7.57-11.13,12.67-8.33,6.5-23.84,7.41-23.84,7.41-2.25-1.67-2.12-5.56-2.12-5.56,0,0,2.35-2.87,6.75-5.37.8-.46,1.68-.91,2.62-1.32,5.9-2.59,8.74-4.78,8.91-4.92,2.93-9.92,9.32-20.01,9.32-20.01,9.23,2.16,16.21-.76,16.21-.76,4.03,0,29.41,8.19,32.74,10.85,3.34,2.67,3.75,22.92,1.15,24.6Z"/>
      <path class="cls-3" d="m100.36,85.39s-19.08-1.42-26.64-1.42c-1.64,0-2.88.33-3.9.92.03-.2.85-4.44,8.38-4.22,7.72.22,22.16,4.72,22.16,4.72Z"/>
      <path class="cls-8" d="m41.77,97.68c-.6-.21-1.34,0-1.97.01-.56.02-1.23-.11-1.71.21-.08.06-.12.19-.03.26.45.39,1.17.32,1.74.32.65,0,1.47.09,2.04-.26.23-.14.17-.47-.07-.55Z"/>
      <path class="cls-8" d="m51.16,94.96c-.65-.09-1.17.91-1.48,1.38-.43.67-.78,1.41-.87,2.2-.04.31.44.41.57.15.34-.65.61-1.32,1.02-1.93.29-.45,1.07-.99,1-1.56-.02-.14-.1-.22-.24-.24Z"/>
      <path class="cls-8" d="m55.91,87.41c-.54-.16-1.04.23-1.53.45-.63.29-1.25.6-1.81,1.01-.24.17-.1.56.21.49.64-.14,1.23-.38,1.83-.64.5-.22,1.24-.37,1.48-.89.08-.17.02-.36-.17-.42Z"/>
      <path class="cls-8" d="m62.92,84.41c-.37.5-.62,1.09-.89,1.64-.25.51-.53,1.03-.73,1.57-.15.42.5.68.71.3.28-.5.48-1.05.7-1.58.24-.57.52-1.14.65-1.74.06-.28-.28-.4-.44-.19Z"/>
      <path class="cls-8" d="m60.09,75.17c-.04-.21-.34-.18-.4,0-.42,1.32-.39,2.85-.46,4.22-.03.57.85.56.88,0,.08-1.37.25-2.87-.02-4.22Z"/>
      <path class="cls-8" d="m67.86,73.5c-.24-.56-.9-.92-1.39-1.25-.42-.28-1.09-.79-1.63-.63-.11.03-.17.14-.14.25.12.48.77.8,1.15,1.07.47.33.97.92,1.53,1.04.26.06.6-.18.48-.48Z"/>
      <path class="cls-8" d="m77.03,76.7c-1.32.03-2.8.19-4.08.52-.3.08-.22.51.07.53,1.33.09,2.81-.03,4.12-.24.46-.07.34-.81-.11-.8Z"/>
      <path class="cls-8" d="m81.02,70.37c-.5-.34-1.2-.23-1.79-.26-.64-.03-1.31-.12-1.94,0-.17.03-.19.28-.05.36.58.33,1.28.4,1.93.49.6.08,1.3.26,1.85-.06.21-.13.19-.41,0-.55Z"/>
      <path class="cls-8" d="m86.89,76.63c-.12-.53-.52-1.01-.81-1.47-.29-.46-.57-.97-.96-1.35-.21-.21-.59,0-.5.29.15.52.46,1.02.72,1.49.26.47.49,1.06.89,1.42.29.26.75,0,.66-.38Z"/>
      <path class="cls-8" d="m95.99,76.45c-1.09-.37-2.41-.48-3.52-.14-.3.09-.22.5.07.53,1.1.11,2.14.21,3.21.48.57.14.78-.68.24-.87Z"/>
      <path class="cls-8" d="m99.64,82.58c-.24-.45-.83-.71-1.25-.98-.47-.3-.94-.59-1.46-.81-.27-.11-.45.28-.27.46.39.41.85.73,1.31,1.06.42.3.85.72,1.38.78.28.03.41-.31.3-.52Z"/>
      <path class="cls-8" d="m106.42,80.07c-.26-.55-1.08-.68-1.61-.87-.69-.25-1.4-.55-2.14-.58-.17,0-.29.24-.15.36.53.43,1.19.67,1.82.93.57.23,1.34.75,1.95.51.14-.06.21-.19.14-.34Z"/>
      <path class="cls-8" d="m105.75,84.81c-.52,1.24-1.33,2.94-.96,4.31.05.19.32.22.42.05.36-.59.42-1.3.56-1.97.16-.75.31-1.51.5-2.25.09-.35-.39-.46-.53-.15Z"/>
      <path class="cls-8" d="m105.83,97.66c-.17-.52-.63-.95-.97-1.36-.41-.49-.81-1-1.32-1.4-.2-.16-.47.03-.36.28.27.58.68,1.09,1.06,1.59.33.43.64.98,1.11,1.26.24.14.56-.09.48-.37Z"/>
      <path class="cls-8" d="m109.77,91.17c-.02-.87-.07-1.74-.15-2.6-.03-.32-.47-.32-.5,0-.09.87-.13,1.73-.15,2.6-.02.77-.11,1.57.13,2.31.09.27.47.27.56,0,.23-.74.14-1.54.13-2.31Z"/>
      <path class="cls-3" d="m46.24,93.68c-2.46.5-4.93.5-6.76.37.8-.46,1.68-.91,2.62-1.32,5.9-2.59,8.74-4.78,8.91-4.92,0,0,.12,4.86-4.77,5.86Z"/>
      <g>
        <path class="cls-7" d="m129.47,99.87v2.92c0,.3-.07.59-.21.85-.17.32-.35.64-.5.9-.5.87-.28,2.14.31,2.94.24.32.4.69.4,1.09v4.46c0,.54-.44.97-.97.97h-6.7c-.54,0-.97-.44-.97-.97v-4.44c0-.4.16-.77.4-1.1.6-.8.82-2.07.32-2.94-.15-.27-.33-.59-.51-.92-.14-.26-.21-.55-.21-.85v-2.9c0-.39.03-.75.09-1.09.5-2.9,2.89-4.05,2.89-4.05v-1.25h2.69v1.25s2.37,1.15,2.88,4.02c.06.35.1.73.1,1.13Z"/>
        <path class="cls-3" d="m125.67,94.19h-1.06c-.68,0-1.23-.55-1.23-1.23s.55-1.23,1.23-1.23h1.06c.68,0,1.23.55,1.23,1.23s-.55,1.23-1.23,1.23Z"/>
        <path class="cls-3" d="m129.47,99.87v2.34h-8.65v-2.34c0-.39.03-.75.09-1.09,1.55-.72,4.85-1.79,8.46-.04.06.35.1.73.1,1.13Z"/>
        <path class="cls-3" d="m129.47,108.79v.45c-1.19-.01-2.38-.05-3.56-.03-1.11.02-4.5.15-5.09.17v-.34c.54-.03,1.09-.04,1.62-.07,1.11-.05,5.79-.19,7.03-.2Z"/>
        <path class="cls-3" d="m129.47,110.25v.4c-1.32.03-2.65.03-3.96.03-1.56,0-3.13-.02-4.69-.08v-.27c1.56,0,7.33-.06,8.65-.08Z"/>
      </g>
      <path class="cls-8" d="m43.95,29.33c-3.58-.5-7.18-.8-10.76-1.42-1.73-.3-3.46-.65-5.17-1.02-1.59-.34-3.2-.82-4.84-.66-.18.02-.26.31-.05.35,6.87,1.22,13.71,3.17,20.73,3.42.37.01.47-.61.09-.67Z"/>
      <path class="cls-8" d="m50.08,24.01c-2.24-1.65-4.7-3.09-7.08-4.54-.26-.16-.48.23-.24.41,2.27,1.62,4.56,3.32,6.96,4.74.4.23.71-.34.35-.6Z"/>
      <path class="cls-8" d="m88.5,15.23c-1.61,1.09-3.05,2.5-4.49,3.79-1.39,1.25-3.11,2.53-4.1,4.14-.09.14.08.3.22.22,1.57-.89,2.86-2.4,4.21-3.6,1.51-1.34,3.16-2.58,4.58-4.02.26-.27-.08-.76-.41-.54Z"/>
      <path class="cls-8" d="m103.04,26.98c-3.14.18-6.28.35-9.41.53-2.92.17-5.95.16-8.83.68-.28.05-.19.45.06.47,3,.21,6.09-.15,9.09-.3,3.03-.15,6.06-.32,9.09-.48.58-.03.58-.94,0-.91Z"/>
      <path class="cls-2" d="m65.71,22.93c-.26,1.29,1.13,2.02,1.33,2.12-1.06-.2-1.81,0-1.81,0-.07-.34-.64-.55-.85-.83-.25-.35-.4-.77-.37-1.2.03-.31.14-.61.29-.88.44-.76,1.25-1.32,2.13-1.4.78-.07,1.59.24,2.11.82-1.41-.29-2.58.1-2.83,1.37Z"/>
      <path class="cls-7" d="m70.68,59.87c-.51-.03-1.07.2-1.54.38-.32.12-.61.28-.92.41-.29.11-.57.23-.86.34-.79-.48-.95-.94-.5-1.39.6-1.25,2.45-1.96,3.49-2.79,1.25-1,2.49-2.95.13-3.38-2.35-.43-6.19.85-7.5,2.91-.06.1.06.2.15.15,1.22-.61,2.17-1.49,3.49-1.96.48-.17.98-.31,1.48-.4.65-.12,3.61-.71,2.77,1.39-.3.76-1.57,1.33-2.23,1.78-.69.48-1.42.96-1.97,1.61-.47.55-1.27,1.75-.55,2.42.52.49,1.26.16,1.81-.06.32-.13.63-.3.95-.43.97-.7,1.67-.33,2.09,1.13-.32.32-.69.59-1.08.82-.26.15-.02.57.24.41.68-.44,2.01-1.3,1.91-2.28-.07-.71-.73-1.02-1.38-1.05Z"/>
    </g>
  </g>
</svg>