<?xml version="1.0" encoding="UTF-8"?>
<svg id="Layer_2" data-name="Layer 2" xmlns="http://www.w3.org/2000/svg" viewBox="0 0 106.15 114">
  <defs>
    <style>
      .cls-1 {
        fill: #f6f6f6;
      }

      .cls-1, .cls-2, .cls-3, .cls-4, .cls-5, .cls-6, .cls-7, .cls-8 {
        stroke-width: 0px;
      }

      .cls-2 {
        fill: #826b80;
      }

      .cls-3 {
        fill: #3b2645;
      }

      .cls-4 {
        fill: #c6c6c6;
      }

      .cls-5 {
        fill: #e0855c;
      }

      .cls-6 {
        fill: #ab8da8;
      }

      .cls-7 {
        fill: #e8cee5;
      }

      .cls-8 {
        fill: #f5a784;
      }
    </style>
  </defs>
  <g id="Layer_1-2" data-name="Layer 1">
    <g>
      <path class="cls-4" d="m100.65,113.69c-1.06.12-2.13.2-3.22.25-.31.01-87.9.05-87.9.05-.06,0-.12,0-.18-.01-.47-.04-.93-.08-1.4-.13-1.2-.12-1.2-1.74,0-1.86.46-.05.93-.09,1.4-.12.07,0,.13,0,.2-.01,0,0,87.58.03,87.88.05,1.08.05,2.15.14,3.23.25.99.11.98,1.42,0,1.53Z"/>
      <path class="cls-1" d="m.7,18.87c-.92,3.74-.86,7.74-.26,11.8,1.29,8.63,5.14,16.91,4.99,25.64-.09,5.2-1.6,10.32-1.36,15.51.31,6.56,3.81,13.14,9.66,16.12,5.19,2.64,11.44,2.24,16.85,4.4,3.92,1.56,7.21,4.39,11.01,6.23,6.55,3.17,14.55,3.15,21.08-.06,6.53-3.21,11.43-9.54,12.91-16.67.72-3.48.67-7.09,1.36-10.58.73-3.65,2.3-7.14,4.55-10.11,5.23-6.91,13.77-10.74,18.88-17.73,4.26-5.82,5.71-13.27,5.77-20.48.05-5.77-.86-11.9-4.56-16.33C95.99-.08,85.92-.78,77.34.78c-8.58,1.56-17.03,4.84-25.72,4.16-6.31-.49-12.27-3.05-18.45-4.4C23.25-1.62,11.39,2.87,4.84,10.66c-2.11,2.51-3.42,5.28-4.14,8.21Z"/>
      <path class="cls-8" d="m48.87,25.43c-.1.07-.16.17-.2.29-.1.33-.32,1.06-.65,2.05-1.39,4.2-4.71,12.8-8.28,11.89-.83-.21-1.83-.65-2.91-1.24-2.57-1.38-4.97-3.11-7.31-4.87-1.41-1.06-3.68-2.26-4.69-3.94-.27-.45-.4-.95-.65-1.4-.7-1.23-1.95-3.33-.32-4.45.61-.42,1.41-.48,2.15-.4,2.53.28,4.67,1.9,6.67,3.46,2.09,1.63,4.17,3.24,6.25,4.87.28.22.84.84,1.25.66.35-.14,2.14-3.47,2.86-4.45,1.13-1.55,2.21-3.25,2.32-5.16.03-.42,0-.86.08-1.27.2-.99,1.1-1.74,2.08-1.91,1.21-.21,2.29.69,3,1.59,1.38,1.73-1.03,3.8-1.66,4.28Z"/>
      <path class="cls-8" d="m39.84,44.26s-4.99,6.76-12.45,9.98l-.14-.14c-1.09-1.11-8.01-8.15-9.55-9.53-.22-.2-.45-.4-.7-.6-1.63-1.36-3.4-2.57-5.21-3.69-.9-.56-2.4-1.11-2.98-2.11-.18-.31-.27-.65-.23-1.06.08-.81.66-1.48,1.21-2.08.59-.63,1.18-1.27,1.77-1.91.44-.47.74-.91.93-1.35.64-1.46.03-2.76-.71-4.51-.55-1.33-1.81-3.28-1.74-4.76.04-.99,1.23-.68,2.14-1.07.91-.39,2.03-.22,2.78.42.63.55.96,1.32,1.3,2.06.09.21.19.41.29.61.29.56.71,1.09,1.16,1.56.09.09.18.18.27.26.42.39.77.27,1.13.01.22-.16.44-.36.69-.53,1.23-.85,2.51-1.72,3.96-2.08.35-.08.72-.14,1.08-.1,1.42.17,1.78,1.25,2.5,2.24.97,1.33,1.93,2.67,2.87,4.02,3.94,5.66,8.33,12.36,9.4,13.98.16.25.24.37.24.37Z"/>
      <path class="cls-8" d="m98.36,28.51c-.05.74-.18,1.59-.8,2.01-.36.25-.82.29-1.25.33-.67.06-1.32.14-1.94.24-.69.11-2.1.45-3.68.86-3.02.77-6.63,1.78-6.93,1.87-4.57,1.5-10.23,3.47-15.8,5.69-10.62,4.23-23.28,10.54-27.62,18.81-3.62,6.91-5.24,17.07-7.33,26.67-.11,1.3-.22,2.59-.37,3.88-.43,4.07-1.39,7.9-2.62,11.75-.23.71-.46,1.4-.71,2.11-.29.84-.55,1.65-.78,2.44-.32,1.15-.57,2.27-.73,3.46-.09.62-.16,1.27-.2,1.94-.03.44-.07.89-.31,1.26-.4.62-1.25.76-1.99.83-3.61,0-7.18.14-10.81,0-.22-.01-.46-.03-.62-.18-.25-.22-.18-.66.06-.89.24-.24.58-.33.9-.42,1.65-.42,3.1-1.12,4.72-1.56.73-.2,1.48-.4,2.08-.86.56-.44.93-1.03,1.18-1.7.23-.63.35-1.33.41-2.03.07-.78.08-1.55.1-2.21.1-2.58,1.06-33.83,1.44-39.16.18-4.17.4-7.53.68-9.18.03-.21.08-.42.14-.62.16-1.48.35-2.95.62-4.39.32-1.7.74-3.36,1.31-4.96.64-1.76,1.59-3.55,3.26-4.38,1.94-.97,3.72-.53,5.54.48.36.2.7.43,1.08.58,2.26.93,4.01-.65,5.9-1.55,1.95-.93,3.9-1.83,5.88-2.69,5.37-2.34,10.86-4.44,16.47-6.14,8.17-2.47,17.13-3.52,23.58-4.23,1.16-.13,2.23-.25,3.21-.36.1-.03.2-.06.3-.1.67-.24,1.25-.64,1.68-1.21.44-.61.63-1.36.82-2.09.41-1.63,1.08-3.09,1.48-4.75.08-.33.16-.67.4-.91.23-.24.67-.32.89-.08.16.16.18.4.19.62.2,3.62.12,7.2.19,10.81Z"/>
      <path class="cls-6" d="m90.68,31.94c-2.33.59-6.86,1.85-6.93,1.87-.92.29-6.57,2.23-8.16,2.8-2.5.9-5.08,1.87-7.64,2.89-9.74,3.88-21.16,9.53-26.37,16.79-.47.66-.89,1.33-1.25,2.02-3.62,6.91-5.24,17.07-7.33,26.67-.11,1.3-.22,2.59-.37,3.88-.21,1.97-.54,3.88-.97,5.77-.05.24-.11.48-.17.72-.25.99-.5,1.98-.78,2.96-.05.2-.11.4-.17.6-.17.57-.35,1.14-.53,1.7-.23.71-.46,1.4-.71,2.11-.29.84-.55,1.65-.78,2.44-1.78.07-3.58.09-5.32-.14.07-.78.08-1.55.1-2.21.05-1.36,1.06-33.83,1.44-39.16.18-4.17.4-7.53.68-9.18.03-.21.08-.42.14-.62.16-1.48.35-2.95.62-4.39.32-1.7.74-3.36,1.31-4.96.64-1.76,1.59-3.55,3.26-4.38,1.94-.97,3.72-.53,5.54.48.36.2.7.43,1.08.58,2.26.93,4.01-.65,5.9-1.55,1.95-.93,3.9-1.83,5.88-2.69,5.37-2.34,10.86-4.44,16.47-6.14,4.15-1.26,8.51-2.15,12.64-2.81.22-.03,3.87-.57,4.12-.61,2.45-.33,4.77-.59,6.82-.82.57,1.09.95,2.29,1.19,3.39.14.65.24,1.31.29,1.98Z"/>
      <path class="cls-3" d="m38.46,43.76c-.42,1.17-1.19,2.25-1.97,3.24-2.44,3.06-5.49,5.68-9.1,7.24l-.14-.14c-1.09-1.11-8.01-8.15-9.55-9.53-.22-.2-.45-.4-.7-.6-1.63-1.36-3.4-2.57-5.21-3.69-.9-.56-2.4-1.11-2.98-2.11-.18-.31-.27-.65-.23-1.06.08-.81.66-1.48,1.21-2.08.59-.63,1.18-1.27,1.77-1.91.44-.47.74-.91.93-1.35,1.43.39,4.77.61,6.33-1.22,1.34-1.58,1.04-2.67.27-4.2.22-.16.44-.36.69-.53,1.23-.85,2.51-1.72,3.96-2.08.35-.08,4.29,3.12,6.45,6.16,1.45,2.04,2.83,4.11,4.22,6.19.66.97,1.35,1.94,1.96,2.94.57.93.86,1.8,1.93,2.32.14.07.29.13.37.26.08.12.09.26.09.4,0,.6-.12,1.18-.32,1.75Z"/>
      <path class="cls-8" d="m9.69,43.26c.86,1.41,1.99,2.66,3.09,4.02,2.07,2.56,4.22,5.11,6.67,7.32.92.82,1.78,1.49,2.54,1.88,1.05.55,2.23.09,3.16-.49,2.25-1.41,3.97-3.72,5.49-5.84.73-1.02,1.43-2.07,2.1-3.14.28-.45.53-.96.89-1.34.6-.63,1.39-1.06,1.96-1.73.6-.71.82-1.73.53-2.62-.28-.89-1.07-1.6-1.99-1.76-.91-.17-1.91.23-2.44,1-.53.77-.63,1.66-1.06,2.45-.09.17-.23.32-.36.46-1.13,1.19-2.2,2.51-3.48,3.54-1.06.86-2.02,1.83-3.04,2.75.12-.11-3.26-5.09-3.48-5.43-.94-1.47-5.22-9.32-8.42-9.31-.88,0-1.81.1-2.49.66-.97.79-1.18,2.21-1.07,3.46.14,1.6.67,2.92,1.41,4.13Z"/>
      <path class="cls-5" d="m17.7,26.08c-.55.27-1.28.54-2.21.72-2.9.56-4.49-2.32-4.49-2.32l5.25-.56c.09.21.19.41.29.61.29.56.7,1.1,1.16,1.56Z"/>
      <path class="cls-3" d="m8.04,20.76c-.95-.78-.76-3.03-.41-4.01.41-1.17,1.3-2.17,2.41-2.71.74-.36,1.56-.53,2.39-.58,1.43-.09,2.92.17,4.13.93.87.55,1.58,1.38,1.94,2.35.37,1,.08,2.09-.13,3.11-.01.06-.36,1.54-.59.98-.09-.22-4.18.13-4.53.14-1.11.02-2.21.04-3.32,0-.46-.01-1.45.11-1.85-.19-.01-.01-.03-.02-.04-.03Z"/>
      <path class="cls-5" d="m17.79,19.07s.75-1.12,1.72-.18c.97.94-.28,3.07-1.39,3.28,0,0-.41-2.64-.33-3.1Z"/>
      <path class="cls-8" d="m17.28,16.1c.63.53.82,1.86,1.03,3.34.62,4.45-.57,5.99-2.83,6.48-2.26.49-4.74-.14-5.67-4.23-.46-2.05-.93-3.93-.27-4.91.98-1.45,5.79-2.32,7.74-.68Z"/>
      <path class="cls-8" d="m10.07,21.05s-.89-1.78-1.89-.68c-1,1.1.82,3.73,2.48,3.35,0,0,.01-2.09-.59-2.67Z"/>
      <path class="cls-5" d="m14.69,20.76c.19-.04.65,0,.73-.17.06-.14-.34-.91-.4-1.04-.21-.48-.42-.79-.6-1.37,0-.03.05-.05.07-.02.54.74.81,1.69,1.17,2.5.02.04-.02.1-.08.1-.29.03-.56.1-.85.13-.1.01-.14-.11-.04-.13Z"/>
      <path class="cls-3" d="m15.69,17.51c.26-.17.78-.26,1.01,0,.04.05,0,.13-.06.14-.14,0-.27-.05-.41-.04-.15,0-.29.05-.43.11-.12.05-.23-.13-.12-.21Z"/>
      <path class="cls-3" d="m11.66,18.28c.12-.41.8-.52,1.12-.31.07.05.04.16-.03.19-.16.07-.35.03-.53.06-.15.03-.27.11-.41.18-.07.03-.17-.04-.15-.12Z"/>
      <path class="cls-3" d="m13.38,19.3c-.48-.28-1.24-.03-1.66.27-.05.03-.07.11-.06.16,0,.03.01.06.04.08.08.07.15.06.2.04.23-.09.47-.18.72-.22.23-.04.47.01.69-.04.12-.03.2-.22.07-.29Z"/>
      <path class="cls-3" d="m17.16,18.73c-.35-.32-1.3-.15-1.63.16-.11.1-.04.3.12.27.25-.04.47-.16.73-.17.24-.01.47.09.7.04.15-.03.17-.21.07-.3Z"/>
      <path class="cls-5" d="m9.72,21.49c-.21-.14-.55-.39-.82-.31-.04.01-.06.06-.04.09.1.19.34.25.52.36.02.01.04.02.06.03-.1.1-.15.24-.17.39-.01.11.15.14.2.06.06-.1.12-.21.18-.32.16.09.31.19.44.3.04.03.1.01.1-.04-.01-.28-.27-.41-.48-.55Z"/>
      <path class="cls-3" d="m18.44,20.63s-.28.89-.65,1.52c-.38.62-.2-1.05-1.7-1.16-.78-.06-2.24.22-2.36,1.67-.11,1.36-2.51,1.26-3.41-.21,0,0,.49,2.76,2.49,3.36,2,.61,3.87.17,4.9-1.21,1.04-1.38.8-3.19.74-3.98Zm-3.92,2.27s.68-.32.86-1.04c0,0,.77.46,1.44.4,0,0-.67,1.25-2.29.64Z"/>
      <path class="cls-5" d="m48.87,25.43c-.1.07-.16.17-.2.29-.1.33-.32,1.06-.65,2.05-.16-2-1.1-3.62-1.23-3.83.78,1.26,2.07,1.49,2.07,1.49Z"/>
      <path class="cls-2" d="m75.58,36.62c-2.49.89-5.07,1.86-7.63,2.88-9.74,3.88-21.19,9.51-26.37,16.79,0,0,1.78-5.99,8.19-10.99,6.32-4.92,25.21-8.57,25.8-8.68Z"/>
      <g>
        <path class="cls-6" d="m64.55,99.38l8.19-.02c0-1.04.84-1.88,1.88-1.89,1.04,0,1.88.84,1.89,1.88v2.44c0,1.04-.83,1.88-1.87,1.89s-1.88-.84-1.89-1.88l-8.19.02c0,1.04-.84,1.88-1.88,1.89-1.04,0-1.88-.84-1.89-1.88v-2.44c0-1.04.83-1.88,1.87-1.89,1.04,0,1.88.84,1.89,1.88Z"/>
        <path class="cls-6" d="m81.16,99.38l8.19-.02c0-1.04.84-1.88,1.88-1.89,1.04,0,1.88.84,1.89,1.88v2.44c0,1.04-.83,1.88-1.87,1.89-1.04,0-1.88-.84-1.89-1.88l-8.19.02c0,1.04-.84,1.88-1.88,1.89-1.04,0-1.88-.84-1.89-1.88v-2.44c0-1.04.83-1.88,1.87-1.89,1.04,0,1.88.84,1.89,1.88Z"/>
        <path class="cls-6" d="m64.55,107.77l8.19-.02c0-1.04.84-1.88,1.88-1.89,1.04,0,1.88.84,1.89,1.88v2.44c0,1.04-.83,1.88-1.87,1.89s-1.88-.84-1.89-1.88l-8.19.02c0,1.04-.84,1.88-1.88,1.89-1.04,0-1.88-.84-1.89-1.88v-2.44c0-1.04.83-1.88,1.87-1.89,1.04,0,1.88.84,1.89,1.88Z"/>
        <path class="cls-6" d="m81.16,107.77l8.19-.02c0-1.04.84-1.88,1.88-1.89,1.04,0,1.88.84,1.89,1.88v2.44c0,1.04-.83,1.88-1.87,1.89-1.04,0-1.88-.84-1.89-1.88l-8.19.02c0,1.04-.84,1.88-1.88,1.89-1.04,0-1.88-.84-1.89-1.88v-2.44c0-1.04.83-1.88,1.87-1.89,1.04,0,1.88.84,1.89,1.88Z"/>
        <path class="cls-4" d="m92.27,105.43h-30.62c-.47,0-.86-.38-.86-.86s.38-.86.86-.86h30.62c.47,0,.86.38.86.86s-.38.86-.86.86Z"/>
      </g>
      <path class="cls-7" d="m30.72,98.3c-.05.2-.11.4-.17.6-2.35-.03-4.73-.03-7.08-.18l.02-.61c2.4,0,4.83.1,7.23.18Z"/>
      <path class="cls-7" d="m31.67,94.62c-.05.24-.1.48-.17.72-2.61.01-5.3.14-7.93.04,0-.1,0-.2,0-.31,0-.16.01-.33.01-.49,2.68-.15,5.44-.01,8.08.04Z"/>
      <path class="cls-7" d="m80.92,34.76c-.23.08-.46.16-.7.24-.34-.98-.63-1.97-.91-2.93-.35-1.21-.91-2.68-1.04-4.07.22-.03.43-.07.65-.1.29,1.55.68,3.05,1.17,4.57.25.78.54,1.54.84,2.3Z"/>
      <path class="cls-7" d="m84.42,33.61c-.37.1-.6.18-.67.2-.35-.85-.66-1.7-.95-2.57-.39-1.14-.91-2.45-1.19-3.75.25-.03.51-.07.76-.1.31,1.04.54,2.15.87,3.13.35,1.05.75,2.08,1.18,3.1Z"/>
    </g>
  </g>
</svg>