<?xml version="1.0" encoding="UTF-8"?>
<svg id="Layer_2" data-name="Layer 2" xmlns="http://www.w3.org/2000/svg" viewBox="0 0 71.46 138.84">
  <defs>
    <style>
      .cls-1 {
        fill: #f6f6f6;
      }

      .cls-1, .cls-2, .cls-3, .cls-4, .cls-5, .cls-6, .cls-7, .cls-8, .cls-9 {
        stroke-width: 0px;
      }

      .cls-2 {
        fill: #291b30;
      }

      .cls-3 {
        fill: #3b2645;
      }

      .cls-4 {
        fill: #c6c6c6;
      }

      .cls-5 {
        fill: #d6bed3;
      }

      .cls-6 {
        fill: #e0855c;
      }

      .cls-7 {
        fill: #fff;
      }

      .cls-8 {
        fill: #e8cee5;
      }

      .cls-9 {
        fill: #f5a784;
      }
    </style>
  </defs>
  <g id="Layer_1-2" data-name="Layer 1">
    <g>
      <path class="cls-4" d="m68.65,138.54c-1.06.12-2.13.2-3.22.25l-61.56.05c-.06,0-.12,0-.18-.01-.1,0-.22-.02-.32-.03-.36-.03-.72-.07-1.08-.1-1.2-.12-1.2-1.74,0-1.86.36-.04.72-.07,1.09-.1.1-.01.21-.02.31-.03.07,0,.13,0,.2-.01l61.54.05c1.08.05,2.15.14,3.23.25.99.11.98,1.42,0,1.53Z"/>
      <path class="cls-1" d="m29.6,12.84c-1.13,5.91-6.12,10.21-10.95,13.79-4.83,3.58-10.09,7.27-12.27,12.88-2.09,5.39-.86,11.47.97,16.95,1.84,5.48,4.29,10.87,4.66,16.64.46,7.23-2.42,14.2-3.93,21.29-1.52,7.09-1.29,15.44,4.01,20.38,4.36,4.06,10.91,4.67,15.96,7.83,2.77,1.74,5.29,4.32,8.55,4.51,3.16.18,5.98-2.02,7.92-4.52,1.94-2.5,3.35-5.42,5.57-7.67,2.59-2.64,6.1-4.19,8.87-6.63,4.03-3.55,6.23-8.72,7.95-13.8,1.21-3.58,2.27-7.3,2.02-11.07-.22-3.22-1.38-6.3-2.55-9.31-2.71-6.98-5.54-14.12-5.69-21.6-.15-7.43,2.35-14.63,3.83-21.91s1.81-15.38-2.22-21.63c-3.03-4.71-8.3-7.76-13.83-8.65-4.69-.75-10.38-.18-14.75,1.8-4.11,1.87-3.43,7-4.14,10.72Z"/>
      <g>
        <path class="cls-9" d="m57.47,13.09s-.02.4-.07,1.08c-.19,2.92-.84,11.11-2.33,15.76-.42,1.3-1.73,4.37-3.26,7.85-2.27,5.16-5.02,11.24-6.07,13.87-.34.86-3.64-.77-4.52-.93-2.23-.42-2.49-4.39-1.77-7.68.29-1.31.72-2.48,1.25-3.31.06-.1.13-.19.2-.29.05-.07.08-.13.13-.19,1.21-1.78,3.21-4.08,4.96-6.17,1.64-1.95,3.08-3.71,3.51-4.69.95-2.14,4.21-14.88,4.21-14.88,1.54-1.68,3.75-.4,3.75-.4Z"/>
        <path class="cls-9" d="m57.89,11.71c-.11.48-.2.93-.27,1.31-.13.68-.19,1.13-.19,1.13-1.12,1.17-3.3-.03-3.3-.03,0,0-.18-.23-.4-.63-.4-.72-.92-2-.68-3.42.16-.91.31-2.96.31-2.96l.4-.03c.42-.03.55,1.31.58,1.91.01.11.02.2.02.25.03-.12.07-.22.13-.3.22-.35.66-.44,1.11-.45.51,0,1.01.01,1.52.04.23.01.48.03.68.14.07.04.14.08.2.14.65.67.07,2.17-.12,2.91Z"/>
      </g>
      <path class="cls-6" d="m57.89,11.71c-.11.48-.2.93-.27,1.31-.08-.12-.16-.24-.25-.34-.4-.47-.98-.76-1.53-1.04-.65-.34-2.41-1.35-1.86-2.35.07-.14.21-.23.38-.3.05-.02.1-.04.15-.05.75-.21,1.98-.07,2.49-.15.27-.04.54-.09.82-.12.07.04.14.08.2.14.65.67.07,2.17-.12,2.91Z"/>
      <g>
        <path class="cls-3" d="m42.62,30.55s.46-2.82,1.37-5.56c.3-.89-.41-1.79-1.27-1.64-.68.12-1.24.38-1.24.38,0,0,.97-2.88-.41-3.83-1.38-.95-3.5.87-4.31,2.24,0,0,.56-1.1-.42-1.74-.99-.64-5.47,4.28-4.59,8.34.88,4.06,1.2,2.92,1.2,2.92,0,0,9.39-.58,9.68-1.1Z"/>
        <path class="cls-6" d="m32.75,29.9s-.87-1.04-1.73,0,.61,3.03,1.73,3.12c0,0,.13-2.67,0-3.12Z"/>
        <path class="cls-9" d="m48.88,41.95c-.52,1.23-2.34,5.73-3.14,9.7-.06.32-.12.62-.17.91-.33,2.04-1.33,11.86-1.49,13.4-.01.13-.02.2-.02.2-7.84,2.15-15.96,0-15.96,0,0,0-.01-.15-.05-.44-.18-1.93-.95-9.9-1.41-16.79-.24-3.51-.39-6.75-.35-8.76.01-.74,1.72-.66,2.91-.82,1.65-.24,3.45-.29,4.27-.3.07,0,.14,0,.2,0h.24l.1-1.15s.07-.76.07-.76l.19-2.07c.13.03.26.05.39.07.26.05.51.07.76.08.33.01.64.01.93-.01.15-.01.29-.03.43-.05.2-.03.4-.06.59-.1.32-.07.62-.16.91-.25.09-.03.18-.05.26-.09.03,0,.05-.01.07-.03.07-.03.14-.05.2-.08.42-.17.78-.36,1.08-.54.19-.11.35-.21.48-.31.05-.03.07-.05.08-.06.07-.05.13-.09.18-.13.07-.05.11-.08.12-.1-.03.14-.04.21-.05.27-.08.66-.18,1.5-.22,2.33-.04.57-.06,1.14-.08,1.64-.03.86-.03,1.48-.03,1.48.19,0,.38,0,.56.03.02,0,.05,0,.07,0,.86.04,1.67.14,2.42.28,2.66.51,4.56,1.48,5.25,1.91.18.11.25.33.18.53Z"/>
        <path class="cls-6" d="m40.77,33.49c-1.01,4.57-5.61,4.25-6.69,3.65l.19-2.07c3.79.77,6.49-1.58,6.49-1.58Z"/>
        <path class="cls-9" d="m32.95,26.9c-.58.6-.62,1.94-.67,3.42-.15,4.49,1.2,5.9,3.5,6.14,2.3.25,4.7-.64,5.19-4.8.25-2.08.51-4.01-.25-4.91-1.13-1.34-6-1.69-7.77.14Z"/>
        <path class="cls-9" d="m40.64,31.06s.7-1.86,1.81-.87c1.11.99-.42,3.8-2.12,3.59,0,0-.23-2.08.31-2.71Z"/>
        <path class="cls-6" d="m41.94,31.03c-.25.04-.5.27-.67.44-.19.17-.4.39-.49.63-.03.08.08.12.13.07.14-.13.26-.29.39-.44.1.1.19.21.33.26.1.04.18-.09.13-.17-.06-.11-.16-.19-.27-.26.18-.14.39-.24.53-.4.06-.06,0-.14-.08-.13Z"/>
        <path class="cls-3" d="m34.25,30.21s-.39.14-.33-.54c.05-.62.33-.53.33-.53,0,0,.27,0,.23.54s-.23.54-.23.54Z"/>
        <path class="cls-3" d="m38.19,30.21s-.39.14-.33-.54c.05-.62.33-.53.33-.53,0,0,.27,0,.23.54s-.23.54-.23.54Z"/>
        <path class="cls-6" d="m36.01,32.05c-.2-.03-.65.09-.74-.12-.08-.18.24-1.22.28-1.4.16-.65.33-1.08.45-1.86,0-.03-.05-.05-.07-.02-.46,1.03-.63,2.3-.9,3.39-.02.06.03.12.09.12.29,0,.57.06.86.06.1,0,.12-.16.02-.17Z"/>
        <path class="cls-3" d="m34.68,28.13c-.28-.14-.8-.18-1,.11-.04.05.01.13.07.13.14,0,.26-.07.4-.09.15-.01.29.02.43.07.13.04.22-.16.09-.22Z"/>
        <path class="cls-3" d="m38.77,28.47c-.16-.39-.85-.43-1.14-.19-.07.06-.02.16.05.18.17.05.35-.01.53,0,.16.01.28.08.43.13.07.03.17-.06.14-.14Z"/>
        <path class="cls-7" d="m35.04,33.44s1.4.21,2.46-.42c0,0-.37.92-1.23,1.15-.86.24-1.23-.73-1.23-.73Z"/>
      </g>
      <g>
        <path class="cls-9" d="m33.39,50.72c-.87.16-4.82.61-5.51.05-.35-.27-.76-.92-1.23-1.82-1.24-2.36-2.82-6.5-4.19-10.37-1.34-3.78-2.48-7.3-2.91-8.64-1.5-4.66-2.14-12.86-2.34-15.77-.04-.68-.07-1.07-.07-1.07,0,0,2.18-1.24,3.75.39.01.01,3.26,12.76,4.22,14.89.38.84,1.49,2.26,2.83,3.88,1.85,2.22,4.13,4.82,5.53,6.81.09.12.18.25.25.37.07.1.13.2.19.29.78,1.22,1.36,3.23,1.55,5.18.26,2.77-.25,5.47-2.07,5.81Z"/>
        <path class="cls-9" d="m20.89,13.48c-.22.4-.4.63-.4.63,0,0-2.17,1.19-3.28.05-.01-.01-.05-.31-.14-.79-.08-.43-.19-1.01-.34-1.66-.12-.48-.9-2.39-.5-2.73.09-.07.21-.1.32-.12.44-.08.89-.16,1.34-.25.77-.14,2.06-.35,2.36.62,0-.55.01-1.87.59-2.17l.41.03s.16,2.05.31,2.96c.24,1.42-.27,2.7-.68,3.42Z"/>
      </g>
      <path class="cls-9" d="m26.55,67.98s-4.14,11.17-4.3,32.3c-.01,1.67-3.28,13.31-1.96,29.55l4.87.92s4.71-17.16,4.93-28.87c0,0,5.97-20.78,6.41-30.34.44-9.56-5.99-12.64-9.94-3.57Z"/>
      <path class="cls-3" d="m25.79,135.68c0,.05,0,.1-.01.15-.16,2.25-2,1.91-4.72,1.95-2.17.03-3.33-1.21-3.2-2.52.03-.37.17-.74.41-1.1,1.12-1.61,1.48-3.76,1.48-3.76,2.68-3.22,5.41.36,5.41.36,0,0,.68,2.5.63,4.92Z"/>
      <path class="cls-9" d="m45.42,67.98s4.14,11.17,4.3,32.3c.01,1.67,3.28,13.31,1.96,29.55l-4.87.92s-4.71-17.16-4.93-28.87c0,0-5.97-20.78-6.41-30.34-.44-9.56,5.99-12.64,9.94-3.57Z"/>
      <path class="cls-3" d="m50.92,137.77c-2.79-.04-4.69.32-4.73-2.1,0-.07,0-.14,0-.21-.06-2.35.63-4.71.63-4.71,0,0,2.74-3.58,5.41-.36,0,0,.36,2.15,1.48,3.76.14.2.24.4.31.61.5,1.48-.65,3.05-3.09,3.01Z"/>
      <path class="cls-8" d="m51.81,37.78c-2.27,5.16-5.01,11.24-6.07,13.87-.07.32-.12.62-.17.91-.33,2.04-1.33,11.86-1.49,13.4-2.71.83-8.22,1.81-16.02-.23-.18-1.93-.95-9.9-1.41-16.79-1.24-2.36-2.82-6.5-4.19-10.37,1.87-1.18,4.49-3.3,5.48-6.32,1.85,2.22,4.13,4.82,5.53,6.81.07,0,.14,0,.2,0,.02.12.04.24.06.38.27,1.58.82,4.12,1.74,5.47.37.54.79.89,1.28.91.99.05,1.94-1.26,2.71-2.78.64-1.28,1.15-2.69,1.45-3.6.03-.08.05-.14.07-.19.02,0,.05,0,.07,0,1.21-1.78,3.21-4.08,4.96-6.17,1.01,1.36,3.28,4.08,5.82,4.71Z"/>
      <path class="cls-3" d="m49.94,90.77c-3.58,1.73-6.52,1.93-8.54,1.7-1.93-.22-3.02-.81-3.02-.81l-2.39-13.39-2.33,13.39c-5.06,1.83-12.03-1.5-12.03-1.5,2.25-21.67,6.39-24.92,6.39-24.92,6.79,2.21,16.14.07,16.14.07,4.77,6.43,5.78,25.47,5.78,25.47Z"/>
      <path class="cls-6" d="m17.16,13.32s-.06.03-.08.05c-.08-.43-.19-1.01-.34-1.66-.12-.48-.89-2.38-.5-2.73.09-.07.21-.1.32-.12.44-.08.89-.16,1.34-.25.55-.1,1.19-.22,1.73-.02.58.21.86.85.86,1.42,0,1.79-2.85,3.06-3.33,3.31Z"/>
      <g>
        <path class="cls-3" d="m70.81,9.48H.65c-.36,0-.65-.29-.65-.65s.29-.65.65-.65h70.15c.36,0,.65.29.65.65s-.29.65-.65.65Z"/>
        <path class="cls-3" d="m2.88,12.18c-.61,0-1.11-.5-1.11-1.11v-4.49c0-.61.5-1.11,1.11-1.11s1.11.5,1.11,1.11v4.49c0,.61-.5,1.11-1.11,1.11Z"/>
        <path class="cls-2" d="m5.1,16.1c-.61,0-1.11-.5-1.11-1.11V2.66c0-.61.5-1.11,1.11-1.11s1.11.5,1.11,1.11v12.34c0,.61-.5,1.11-1.11,1.11Z"/>
        <path class="cls-3" d="m7.32,17.97c-.61,0-1.11-.5-1.11-1.11V1.16C6.21.55,6.71.05,7.32.05s1.11.5,1.11,1.11v15.7c0,.61-.5,1.11-1.11,1.11Z"/>
        <path class="cls-3" d="m67.61,12.18c.61,0,1.11-.5,1.11-1.11v-4.49c0-.61-.5-1.11-1.11-1.11s-1.11.5-1.11,1.11v4.49c0,.61.5,1.11,1.11,1.11Z"/>
        <path class="cls-2" d="m65.39,16.1c.61,0,1.11-.5,1.11-1.11V2.66c0-.61-.5-1.11-1.11-1.11s-1.11.5-1.11,1.11v12.34c0,.61.5,1.11,1.11,1.11Z"/>
        <path class="cls-3" d="m63.17,17.97c.61,0,1.11-.5,1.11-1.11V1.16c0-.61-.5-1.11-1.11-1.11s-1.11.5-1.11,1.11v15.7c0,.61.5,1.11,1.11,1.11Z"/>
      </g>
      <path class="cls-9" d="m17.18,10.24c.05.09.1.19.18.26.11.09.26.11.4.12.44.04.89.02,1.32-.06.39-.07.8-.21,1.06-.52.31-.38.31-.95.13-1.41-.28-.71-.95-1.24-1.7-1.4-.62-.14-2.19-.08-2.45.69-.13.38.24.76.42,1.06.24.41.43.84.64,1.27Z"/>
      <path class="cls-9" d="m57.01,10.24c-.05.09-.1.19-.18.26-.11.09-.26.11-.4.12-.44.04-.89.02-1.32-.06-.39-.07-.8-.21-1.06-.52-.31-.38-.31-.95-.13-1.41.28-.71.95-1.24,1.7-1.4.62-.14,2.19-.08,2.45.69.13.38-.24.76-.42,1.06-.24.41-.43.84-.64,1.27Z"/>
      <path class="cls-2" d="m41.4,92.46c-1.93-.22-3.02-.81-3.02-.81l-2.39-13.39s3.04,4.28,5.41,14.2Z"/>
      <path class="cls-2" d="m25.77,135.83c-.16,2.25-2,1.91-4.72,1.95-2.17.03-3.33-1.21-3.2-2.52.54.48,1.02.83,1.83,1.03.83.21,1.64.16,2.49.12,1.26-.05,2.41-.34,3.6-.58Z"/>
      <path class="cls-2" d="m50.92,137.77c-2.79-.04-4.69.32-4.73-2.1,0-.07,0-.14,0-.21,1.55,1.16,3.49,1.36,5.34.69.91-.33,1.69-.89,2.49-1.4.5,1.48-.65,3.05-3.09,3.01Z"/>
      <path class="cls-8" d="m24.33,131.97c-.75-.93-2.59-.87-3.55-.35-.3.16-.09.63.23.54.51-.13,1.02-.24,1.55-.18.54.06.96.36,1.48.49.31.08.47-.28.29-.5Z"/>
      <path class="cls-8" d="m23.89,133.07c-.57-.21-1.22-.25-1.82-.27-.55-.02-1.12-.04-1.61.23-.14.08-.1.29.04.34.51.15,1.05.07,1.57.1.59.03,1.16.16,1.74.21.36.03.39-.49.08-.6Z"/>
      <path class="cls-8" d="m51.44,131.71c-.37-1.15-2.61-.54-3.41-.3-.32.1-.28.63.08.6.55-.04,1.09-.19,1.64-.22.28-.02.58-.02.85.08.26.09.32.17.59.17.16,0,.29-.16.24-.32Z"/>
      <path class="cls-8" d="m51.18,132.67c-.56-.52-1.8-.35-2.49-.21-.34.07-1.16.4-.71.86.05.05.12.04.17,0,.29-.26,1.01-.22,1.37-.23.5,0,1.07.2,1.54.03.18-.07.28-.3.12-.45Z"/>
      <path class="cls-5" d="m32.72,55.48c-.02.05-.03.11-.04.16-.02.05.08.05.06,0,0-.05-.02-.11-.03-.16Z"/>
      <path class="cls-5" d="m43.13,45.13c-.5-1.53-.73-3.06-.93-4.66-.03-.2-.29-.2-.32,0-.35,2.89.86,6.42,2.39,8.85.12.18.41.07.35-.15-.38-1.39-1.05-2.67-1.5-4.03Z"/>
      <path class="cls-5" d="m32.12,39.92c-.82,1.3-1.52,2.67-2.33,3.97-.81,1.3-1.77,2.52-2.51,3.85-.05.08.06.17.13.1,2.11-2.05,3.91-5.09,4.99-7.81.07-.17-.19-.26-.28-.12Z"/>
    </g>
  </g>
</svg>