<?xml version="1.0" encoding="UTF-8"?>
<svg id="Layer_2" data-name="Layer 2" xmlns="http://www.w3.org/2000/svg" viewBox="0 0 260.94 353.64">
  <defs>
    <style>
      .cls-1 {
        fill: #3f383d;
      }

      .cls-1, .cls-2, .cls-3, .cls-4, .cls-5, .cls-6, .cls-7, .cls-8 {
        stroke-width: 0px;
      }

      .cls-2 {
        fill: #1c1c1e;
      }

      .cls-3 {
        fill: #d1296b;
      }

      .cls-4 {
        fill: #ef296b;
      }

      .cls-5 {
        fill: #fff;
      }

      .cls-6 {
        fill: #ffbaba;
      }

      .cls-7 {
        fill: #ef9e9e;
      }

      .cls-8 {
        fill: #000c78;
      }
    </style>
  </defs>
  <g id="OBJECTS">
    <g>
      <g>
        <g>
          <g>
            <path class="cls-6" d="m209.81,273.1s-7,64.2-6.42,68.28c25.1,1.75,20.43,1.17,20.43,1.17l15.17-64.2-29.18-5.25Z"/>
            <path class="cls-7" d="m205.44,313.99s20.72-24.67,32.29-27.03c-17.38-7.18-25.27-6.31-25.27-6.31l-5.33,4.43-1.69,28.91Z"/>
          </g>
          <g>
            <path class="cls-8" d="m260.93,353.11s0,0,0-.01c0-.05-.01-.13-.03-.23,0-.01,0-.03,0-.04-.01-.1-.03-.21-.05-.34,0-.02,0-.05-.01-.07-.02-.13-.05-.27-.08-.43,0-.03-.01-.05-.02-.08-.04-.17-.08-.34-.13-.53,0-.02,0-.04-.02-.06-.53-1.94-1.83-4.81-4.97-5.67-4.88-1.33-28.87-13.1-28.87-13.1-6.66,9.33-17.32,5.33-23.09-1.78-1.58.63-1.36,11.96-1.1,18.43h0s0,0,0,0c.06,1.62.13,2.93.17,3.69,0,.02,0,.04,0,.06,0,.12.01.22.02.3,0,.03,0,.06,0,.08.01.19.02.29.02.29h48.85l9.33-.44s0-.03,0-.09Z"/>
            <path class="cls-5" d="m203.25,349.23c-.31,0-.57-.24-.58-.55-.02-.32.23-.6.55-.61,14.93-.76,54.02-1.31,54.42-1.32h0c.32,0,.58.26.58.58,0,.32-.25.59-.58.59-.39,0-39.47.56-54.37,1.31-.01,0-.02,0-.03,0Z"/>
            <path class="cls-5" d="m227.05,340.35c-.16,0-.32-.07-.44-.2-.21-.24-.19-.61.05-.83l5.59-4.94c.24-.21.61-.19.82.05.21.24.19.61-.05.83l-5.59,4.94c-.11.1-.25.15-.39.15Z"/>
            <path class="cls-5" d="m231.33,342.32c-.16,0-.32-.07-.44-.2-.21-.24-.19-.61.05-.82l5.59-4.93c.24-.21.61-.19.82.05.21.24.19.61-.05.83l-5.59,4.93c-.11.1-.25.15-.39.15Z"/>
            <path class="cls-5" d="m235.93,343.97c-.16,0-.32-.07-.44-.2-.21-.24-.19-.61.05-.83l5.59-4.94c.24-.21.61-.19.83.05.21.24.19.61-.05.83l-5.59,4.94c-.11.1-.25.15-.39.15Z"/>
          </g>
        </g>
        <g>
          <path class="cls-4" d="m184.03,146.62l68.56,61.06c2.71,2.08,3.77,5.67,2.64,8.89l-17.49,72.45-30.6-1.87s-3.12-34.35,2.5-54.34c-51.21-24.36-63.19-33.45-63.19-33.45l13.85-63.98,23.73,11.24Z"/>
          <path class="cls-3" d="m174.74,174.35l-25,26.98c7.57,4.6,26.44,15.56,59.9,31.47-5.62,19.99-2.5,54.34-2.5,54.34l16.27,1c1.79-14.75,7.05-55.71,11.21-65.09,2.63-5.92-59.88-48.69-59.88-48.69Z"/>
        </g>
      </g>
      <g>
        <g>
          <g>
            <path class="cls-6" d="m81.96,267.11l-49.1,60.44-16.37-1.57s19.83-56.66,35.88-73.97l29.59,15.11Z"/>
            <path class="cls-7" d="m43.13,264.83s14.48,25.33,13.6,32.35c18.42-21.5,25.22-30.07,25.22-30.07l-38.82-2.28Z"/>
          </g>
          <g>
            <path class="cls-8" d="m35.52,324.28c-4.35,5.05-16.54,3.13-17.77-1.71,0,.01-.01.04-.02.05-.62,1.05-19.67,25.55-17.58,26.17,1.39.41,13.99.84,23.99.05.54-.04,1.1-.1,1.67-.16,2.53,0,11.45-.67,12.61-3.5.24-.58.23-1.22.21-1.85-.04-2.04-.09-4.07-.13-6.11-.1-4.82-.22-9.75-1.86-14.28-.2.51-.7.84-1.13,1.34Z"/>
            <path class="cls-5" d="m27.02,330.04s-.07,0-.11,0l-14.68-2.25c-.38-.06-.65-.42-.59-.8.06-.39.41-.65.8-.59l14.68,2.25c.38.06.65.42.59.8-.05.35-.35.6-.7.6Z"/>
            <path class="cls-5" d="m24.9,334.8s-.07,0-.11,0l-14.68-2.25c-.38-.06-.65-.42-.59-.8.06-.38.41-.65.8-.59l14.68,2.25c.38.06.65.42.59.8-.05.35-.35.6-.7.6Z"/>
            <path class="cls-5" d="m22.78,339.56s-.07,0-.11,0l-14.69-2.25c-.38-.06-.65-.42-.59-.8.06-.38.41-.65.8-.59l14.69,2.25c.38.06.65.42.59.8-.05.35-.35.6-.7.6Z"/>
            <path class="cls-5" d="m11.18,345.38c-4.98,0-8.61-.27-8.67-.28-.4-.03-.7-.39-.67-.81.03-.42.36-.74.78-.7.11.01,11.1.83,21.13-.42,7.59-.94,14.1-3.33,14.16-3.35.38-.14.79.06.93.46.14.39-.06.82-.44.96-.07.03-6.72,2.47-14.48,3.43-4.39.55-8.96.7-12.75.7Z"/>
          </g>
        </g>
        <path class="cls-4" d="m123.45,134.12c0-1.25-28.99,27.07-49.84,85.98,0,0-21.73,25.38-30.47,44.72,33.23,8.55,35.87,8.54,35.87,8.54l86.52-88.49-5.23-49.51-36.85-1.25Z"/>
      </g>
      <g>
        <polygon class="cls-6" points="187.15 125.38 184.03 146.62 123.45 134.12 131.57 114.76 187.15 125.38"/>
        <path class="cls-7" d="m131.57,114.76l-2.45,7.38s31.23,14.44,43.74,22.17l11.17,2.3,3.12-21.23-55.58-10.62Z"/>
      </g>
      <g>
        <g>
          <g>
            <path class="cls-6" d="m184.98,75.98l35.24-29.36-30.28-30.6,15.7-8.82s21.22,12.83,36.14,26.93c14.91,14.1,3.17,27.37-4.6,34.72-9.78,9.26-42.63,41.14-42.63,41.14l-9.56-34.03Z"/>
            <path class="cls-7" d="m193.68,19.75l9.1-4.45s18.61,26.68,17.43,31.32c-14.02-15.99-26.54-26.87-26.54-26.87Z"/>
          </g>
          <path class="cls-6" d="m190.32,16.54c-1.12-1.07-2.24-2.13-3.35-3.2-.68-.65-1.38-1.33-1.72-2.19s-.2-1.97.56-2.41c-.99-.73-1.55-2.01-1.4-3.18.15-1.17,1-2.18,2.11-2.51.53-.16,1.11-.17,1.59-.42.54-.28.9-.84,1.46-1.1.95-.46,2.17.04,3.21-.23.48-.13.89-.42,1.33-.64.85-.44,1.84-.65,2.83-.59,2.95.16,5.41,2.48,7.56,4.65,1.4,1.41,2.79,2.82,4.19,4.23.43.43.86.87,1.31,1.28l-11.69,6.51-7.97-.2Z"/>
          <path class="cls-2" d="m196.22,11.15s.01-.01.02-.02c.18-.19.16-.49-.03-.66-.91-.83-2.69-.84-3.98-.72l.28-.27c.38-.36.55-.76.52-1.19-.06-.79-.8-1.42-1.6-1.98-1.12-.78-4.48,1.17-5.87,2.04-.21.13-.29.43-.15.65.14.22.43.29.65.15,2.13-1.34,4.43-2.32,4.83-2.07.29.2,1.17.82,1.2,1.28,0,.05.02.2-.23.44l-2.58,2.46,1.64-.36c.98-.21,3.73-.59,4.66.26.18.17.46.16.64,0Z"/>
          <path class="cls-2" d="m189.65,7.16c.17-.16.2-.44.05-.63-.68-.87-1.75-3.49-1.77-3.52-.1-.24-.37-.36-.61-.26-.24.1-.36.37-.26.61.05.11,1.14,2.76,1.9,3.74.16.2.46.24.66.08.01,0,.02-.02.04-.03Z"/>
          <path class="cls-2" d="m194.48,9.74c.8-.76.94-1.92.36-3.24-.55-1.26-2.39-5-2.47-5.16-.11-.23-.4-.33-.63-.21-.23.11-.33.4-.21.63.02.04,1.91,3.88,2.45,5.12.37.84.55,1.95-.68,2.53-.23.11-.34.39-.22.63.11.23.39.34.63.23.3-.14.56-.32.77-.52Z"/>
          <path class="cls-2" d="m198.24,8.39c.5-.48.83-1.04.88-1.64.12-1.5-2.55-5.7-3.09-6.53-.14-.22-.43-.28-.65-.14-.22.15-.28.43-.14.65,1.18,1.81,3.02,5.03,2.94,5.94-.09,1.09-2.03,2.27-3.77,2.3-.26,0-.47.22-.46.48,0,.26.22.47.48.46,1.34-.03,2.87-.63,3.81-1.52Z"/>
          <path class="cls-7" d="m191.41,95.83l-.12,2.61,3.25,11.58s32.85-31.89,42.63-41.14c2.31-2.18,4.96-4.89,7.16-7.98.21-.64.42-1.28.6-1.91-18.86-4.83-53.52,36.85-53.52,36.85Z"/>
        </g>
        <g>
          <path class="cls-6" d="m136.69,159.67c-1.92-1.89-3.76-3.84-5.63-5.8-9.02-9.43-18.03-18.86-27.05-28.29,4.71-3.79,9.42-7.57,14.12-11.36,3.79-3.05,7.6-6.09,11.38-9.16,3.35-2.71,7.68-4.59,10.08-8.26.16-.25.32-.5.47-.75,1.4-2.39,2.27-5.08,3.14-7.72,2.22-6.76,4.53-13.5,7.37-20.02-28.18-5.87-45.11,17.54-63.45,34.31-8.05,7.36-20.25,20.68-5.3,35.32,14.96,14.64,36.37,28.09,36.37,28.09,1.25,1.4,2.5,2.81,3.75,4.21.34.38.69.78.85,1.28.16.49.1,1.03.03,1.54l-.6,4.98c-.09.75-.18,1.52.06,2.23.23.71.88,1.35,1.63,1.32,1.01-.04,1.58-1.16,1.92-2.12,1.04-3.01,1.84-6.12,2.37-9.26.1,2.8.19,5.6.29,8.4.03.87.13,1.86.83,2.36.71.5,1.76.22,2.36-.4.61-.62.88-1.49,1.08-2.34.75-3.08.95-6.29.58-9.44.63,2.73,1.41,5.44,2.31,8.09.33.96.98,2.11,1.98,1.95.43-.07.78-.38,1.01-.75.55-.88.49-2.01.4-3.05-.19-2.25-1.19-5.82-.69-7.96.97.4,1.89.94,2.83,1.43.55.29,1.12.59,1.74.66.62.08,1.31-.12,1.67-.63.38-.55.27-1.32-.09-1.89-.35-.57-.9-.98-1.43-1.38-2.27-1.73-4.36-3.63-6.37-5.61Z"/>
          <path class="cls-7" d="m104.01,125.58l-8.67-10.89s31.58-31.15,44.75-26.32l-3.51,14.48-7.06,2.22-25.51,20.52Z"/>
        </g>
        <path class="cls-4" d="m178.52,69.9l9.61,2.6s6.28,26.67,8.62,36.48l-8.1,22.65-63.51-10.93,20.25-54.48,11.84.09,21.29,3.59Z"/>
        <path class="cls-3" d="m178.52,69.9l-7.23-1.22-1.81,5.65s-.63,28.13-11.02,52.1l30.19,5.2,8.1-22.65c-2.34-9.81-8.62-36.48-8.62-36.48l-9.61-2.6Z"/>
        <g>
          <path class="cls-2" d="m159.79,22.34c3.15,1.39,6.09,3.55,8.84,5.62,2.05,1.55,4.9,3.53,4.11,6.52-.75,2.84-4.2,4.44-6.89,4.54-2.81.1-5.63-1.17-8.38-.09-3.12,1.22-5.68,3.56-8.16,5.74-3.49,3.06-6.92,6.18-10.34,9.32-10.43,9.56-28.13,19.69-29.78,18.89-1.65-.81-1.97-3.18-7.9-14.69-.1-.18-.18-.36-.27-.54-5.5-11.13-.62-16.6,8.29-21.46,9.06-4.94,9.22,9.39,14.83,6.17,5.6-3.22,14.39-27.28,20.37-27.2,2.33.03,4.66,1.9,6.78,2.79,2.96,1.25,5.6,3.11,8.51,4.4Z"/>
          <circle class="cls-4" cx="162.12" cy="27.06" r="5.4"/>
          <path class="cls-6" d="m179.94,53.22h0s0,.6-.02,1.53c0,.32-.02.67-.04,1.06v.02c-.04,1.11-.1,2.53-.19,4.17-.1,2.05-.23,4.45-.39,7.01-.02.31-.04.62-.06.93h0c-.18,2.8.1,7.6-.28,10.14-3.7,3.71-8.56,3.94-12.59,3.08-4.39-.93-8.2-3.9-9.54-8.86.12-.07.18-.13.2-.15l4.13-9.27.44-1.2,1.94-5.29,2.4-6.57,14.01,3.39Z"/>
          <path class="cls-7" d="m179.94,53.22h0s0,.6-.02,1.53c0,.32-.02.67-.04,1.06v.02c-.04,1.11-.1,2.53-.19,4.17-.1,2.05-.23,4.45-.39,7.01-2.4.58-4.95.66-7.53.18-4.01-.74-7.5-2.72-10.17-5.5l1.94-5.29,2.4-6.57,14.01,3.39Z"/>
          <path class="cls-6" d="m189.26,30.83c.22.93.35,1.87.38,2.79.05,1.27-.07,2.51-.33,3.71-.2.89-.47,1.75-.82,2.58l-.19.97-.18.99-.61,3.4c-.17.98-.45,1.91-.82,2.8-.1.28-.22.55-.37.82-2.67,5.56-8.82,8.88-15.2,7.71l-.53-.1c-6.39-1.17-10.97-6.47-11.5-12.65-.03-.27-.04-.54-.05-.82-.03-.96.05-1.94.23-2.92l.62-3.37.16-.93.02-.1v-.09s.31-1.59.31-1.59c.02-1.69.33-3.32.89-4.86.68-1.85,1.72-3.54,3.07-4.98.83-.9,1.78-1.69,2.82-2.35.39-.24.79-.48,1.21-.69,1.02-.52,2.12-.93,3.28-1.2,2.67-.63,5.32-.49,7.74.28.85.26,1.67.6,2.44,1.01.2.1.38.21.56.31.16.1.32.19.47.29.34.21.67.44.98.68.22.15.42.32.62.49.56.46,1.07.96,1.54,1.5.18.19.35.4.5.6,1.29,1.62,2.25,3.55,2.76,5.7Z"/>
          <path class="cls-2" d="m190.2,32.06c.14.99.18,1.97.12,2.93-.08,1.32-.35,2.61-.76,3.84-.01,0-.04,0-.05-.01-2.2-.84-4.14-2.24-5.69-3.92-1.38-1.49-3.05-3.72-3.34-5.75-.24-.76-.42-1.56-.54-2.37-.33-2.27-.12-4.5.52-6.57.91.34,1.77.76,2.58,1.26.2.12.4.25.59.37.17.12.33.23.49.34.35.24.69.51,1.01.79.22.18.42.37.63.57.56.52,1.08,1.09,1.53,1.69.18.21.34.44.49.66,1.25,1.8,2.09,3.89,2.42,6.17Z"/>
          <path class="cls-1" d="m182.73,21.27c-.09,2.82-.92,5.51-2.3,7.82-2.36,3.95-6.37,6.82-11.2,7.52-2.76.4-5.61.04-8.2-1.06-.79-.32-1.5-.66-2.08-1.16l.45-1.66c.17-1.79.64-3.49,1.35-5.07.87-1.89,2.1-3.59,3.62-4.98.15-.09.3-.21.44-.33.83-.73,1.72-1.37,2.69-1.89.43-.22.86-.43,1.32-.61,1.1-.45,2.27-.77,3.5-.95,2.82-.41,5.55,0,7.99,1.06.86.36,1.67.8,2.43,1.32Z"/>
          <path class="cls-1" d="m145.53,15.25c-.6,7.43-3.76,18.03-14.22,30.81-10.06,12.29-21.36,13.55-30.31,11.58-5.5-11.13-.62-16.6,8.29-21.46,9.06-4.94,9.22,9.39,14.83,6.17,5.6-3.22,14.39-27.28,20.37-27.2.35,0,.7.03,1.04.1Z"/>
        </g>
      </g>
    </g>
  </g>
</svg>