<?xml version="1.0" encoding="UTF-8"?>
<svg id="Layer_2" data-name="Layer 2" xmlns="http://www.w3.org/2000/svg" viewBox="0 0 171.03 426.93">
  <defs>
    <style>
      .cls-1 {
        fill: #f3ad82;
      }

      .cls-1, .cls-2, .cls-3, .cls-4, .cls-5, .cls-6, .cls-7, .cls-8 {
        stroke-width: 0px;
      }

      .cls-2 {
        fill: #3f383d;
      }

      .cls-3 {
        fill: #1c1c1e;
      }

      .cls-4 {
        fill: #ef296b;
      }

      .cls-5 {
        fill: #ffbf29;
      }

      .cls-6 {
        fill: #ffba48;
      }

      .cls-7 {
        fill: #ffd448;
      }

      .cls-8 {
        fill: #eb9872;
      }
    </style>
  </defs>
  <g id="OBJECTS">
    <g>
      <g>
        <path class="cls-8" d="m162.91,49.49c-.94-1.43-2.28-3.17-3.95-5.12-7.13-8.35-20.06-20.58-32.4-28.75l.04-.04c-1.71-1.07-3.55-2.26-5.26-3.34-.31-.2-.64-.4-.83-.73-.17-.29-.22-.64-.26-.98-.16-1.32-.31-2.63-.47-3.95-.1-.85-.22-1.76-.76-2.42-.53-.66-1.63-.89-2.15-.23-.28.36-.32.87-.33,1.34-.08,2.42-.06,4.85.07,7.27-.46-1.93-.91-3.86-1.37-5.79-.24-1-.68-2.2-1.66-2.3-.74-.08-1.39.6-1.58,1.35-.19.75-.05,1.55.09,2.31.37,2.11.65,4.24.85,6.37-.75-1.85-1.5-3.71-2.26-5.56-.22-.54-.48-1.12-.98-1.38-.81-.42-1.81.31-2.06,1.22-.25.9.02,1.87.29,2.77.96,3.25,1.92,6.51,2.86,9.77.07.26.15.54.06.79-.1.26-.34.41-.59.52-.75.33-1.59.39-2.37.66-.78.26-1.55.83-1.7,1.67-.18,1.07.77,2.05,1.78,2.31,1.01.26,2.06,0,3.09-.14.64-.09,1.33-.11,1.96.03,4.26,4.26,15,15.03,25.52,26.34,0,0-4.47,7.17-9.85,16.12-2.26,3.74-4.67,7.79-6.97,11.75-.28.48-.55.95-.83,1.43-.83,1.44-1.67,2.89-2.5,4.34,1.65,3.91,10.81,13.09,12.16,13.61,1.12.43,1.99,1.35,2.99,2.14,2.28,1.81,4.97,3.81,6.52,4.48.1-.24,6.47-8.69,6.5-8.77.67-1.9,5.2-7.15,10.97-20.33,4.01-9.15,5.55-17.61,6.51-22.13.36-1.7.52-2.89.45-3.44-.09-.69-.64-1.78-1.57-3.17Z"/>
        <g>
          <path class="cls-6" d="m147.66,99.03c-8.54,11.59-17.31,22.25-24.41,25.94-14.85,7.71-24.66-4.33-26.32-13.34-.38-2.03-.35-3.9.14-5.35,2.33-7.06,14.85-18.47,27.31-30.86,2.93,2.91,6.86,6.88,10.9,11,4.37,4.43,8.87,9.04,12.38,12.61Z"/>
          <path class="cls-5" d="m135.28,86.42c-9.02,4.24-28.85,13.79-38.36,25.22-.38-2.03-.35-3.9.14-5.35,2.33-7.06,14.85-18.47,27.31-30.86,2.93,2.91,6.86,6.88,10.9,11Z"/>
        </g>
      </g>
      <g>
        <g>
          <polygon class="cls-1" points="156.3 128.99 159.33 158.45 112.7 169.74 107.78 141.56 156.3 128.99"/>
          <path class="cls-8" d="m157.17,132.03s-45.06,23.83-45.49,31.63l-3.03-17.76,48.52-13.86Z"/>
        </g>
        <path class="cls-5" d="m97.63,97.54s-2.09,20.84,1.48,29.93c3.57,9.1,7.8,18.2,7.8,18.2l50.25-13.65s-3.9-26.86-6.07-30.33c-5.97-9.55-30.22-18.95-30.22-18.95l-11.05,3.79-12.2,11.01Z"/>
      </g>
      <g>
        <path class="cls-1" d="m119.36,254.1c-.74,25.52-1.35,48.64-1.35,55.96,0,10.84,3.93,28.99,7.26,43.69,1.29,5.75,2.5,10.98,3.35,15.04,0,0,1.69,9.32,1.69,10.62s-2.6,10.4-2.6,10.4l16.03,13.43,7.07-82.01c.36-2.6.71-5.14,1.05-7.58h0c.82-5.95,1.58-11.31,2.19-15.61.93-6.47,2.02-19.04,3.14-34.15l-37.82-9.79Z"/>
        <g>
          <path class="cls-7" d="m123.24,389.29l-4.57,4.52s13.3,23.25,16.1,27.17c2.79,3.91,5.61,4.58,9.72,5.47,4.11.89,8.45.26,8.45.26l.68-5.41-8.45-.05-8.2-5.24-7.29-13.04-6.42-13.68Z"/>
          <path class="cls-4" d="m152.94,423.04c-1.4.79-10.01-.06-12.6-1.68-2.59-1.61-16.61-25.04-17.98-29.26-.89-2.72,3.93-4.96,7.2-9.71,3.51,6.79,6.3,13.76,13.24,16.54.38.15.76.29,1.15.42,1.02,7.52,2.22,15.42,2.84,16.24,1.19,1.61,5.58,2.63,6.38,3.83.79,1.2,1.18,2.82-.22,3.61Z"/>
        </g>
        <path class="cls-5" d="m116.66,258.1l40.29,16.25s9.1-88.16,3.25-117.19l-46.14,13.86,2.6,87.08Z"/>
      </g>
      <path class="cls-8" d="m115.99,84.35c-.99,4.08-3.47,7.71-7.43,10.22-3.92,2.47-7.61,3.23-10.92,2.98l-4.23-8.28,15.11-8.7s3,1.51,7.48,3.79Z"/>
      <g>
        <path class="cls-3" d="m90.13,107.96c1.45,1.32,2.37,3.23,2.38,5.36.01,4.02-3.24,7.31-7.27,7.32-2.34,0-4.42-1.09-5.75-2.8-.72,3.03-3.43,5.27-6.67,5.29-2.61,0-4.88-1.43-6.05-3.55-.3-.53-.53-1.12-.67-1.72-.05-.18-.08-.38-.11-.57-.19.04-.39.06-.58.08-.16.01-.34.02-.5.02-.43,0-.85-.04-1.26-.12-.02,0-.05-.01-.07-.02-1.65-.35-3.06-1.36-3.94-2.75-.08-.12-.15-.24-.23-.36-.29-.53-.51-1.11-.63-1.71-.03-.19-.06-.39-.08-.58-.03-.22-.04-.44-.04-.68,0-1.52.53-2.92,1.42-4.01.02-.01.03-.03.04-.04-.29-.24-.56-.5-.79-.79h0c-.88-1.01-1.44-2.26-1.61-3.65-.03-.27-.05-.54-.05-.82-.01-3.69,2.88-6.72,6.54-6.91-.46-.87-.72-1.88-.73-2.93-.01-3.34,2.53-6.1,5.8-6.41.19-.02.4-.03.61-.03.36,0,.74.03,1.11.09h.01c.61.1,1.21.28,1.75.58.63.35,1.04,1.03,1.8.78.76-.24,1.32-1.13,1.77-2.16.5-1.15.85-2.44,1.15-3.15.61-1.49,1.45-2.98,2.8-3.85,1.62-1.02,3.18,2.2,4.2,3.18,1.05,1,1.85,1.77,2.25,3.22.22.82-.05,2.61.39,3.18.4.54,1.69.92,2.24,1.47,1.28,1.26,2,3,2.01,4.8,0,.58-.07,1.15-.21,1.69,2.61.83,4.5,3.27,4.51,6.15.01,3.24-2.37,5.94-5.48,6.4Z"/>
        <path class="cls-2" d="m76.2,110.58c-1.16,1.72-4.13,2.99-5.73,1.02,1.04,1.64.75,3.92-.4,5.5-.82,1.13-2,1.94-3.31,2.46-.3-.53-.53-1.12-.67-1.72-.05-.18-.08-.38-.11-.57-.19.04-.39.06-.58.08-.16.01-.34.02-.5.02-.43,0-.85-.04-1.26-.12-.02,0-.05-.01-.07-.02-1.65-.35-3.06-1.36-3.94-2.75-.08-.12-.15-.24-.23-.36-.29-.53-.51-1.11-.63-1.71-.03-.19-.06-.39-.08-.58-.03-.22-.04-.44-.04-.68,0-1.52.53-2.92,1.42-4.01.02-.01.03-.03.04-.04-.29-.24-.56-.5-.79-.79h0c-.88-1.01-1.44-2.26-1.61-3.65-.03-.27-.05-.54-.05-.82-.01-3.69,2.88-6.72,6.54-6.91-.46-.87-.72-1.88-.73-2.93-.01-3.34,2.53-6.1,5.8-6.41.98.68,1.91,1.44,2.54,2.45,1.67,2.72.61,6.41-1.48,8.83,3.2.51,6.02,2.94,7.01,6.02.82,2.54.38,5.47-1.11,7.67Z"/>
        <polygon class="cls-4" points="81.84 83.06 80.62 89.49 73.51 88.14 73.5 88.14 74.72 81.71 78.75 82.48 81.84 83.06"/>
        <path class="cls-1" d="m78.32,82.11s10.35,14.8,23.84,6.29c10.92-6.89,10.6-25.58-6.62-30.45-14.77-4.18-25.08,15.91-17.22,24.16Z"/>
        <g>
          <g>
            <path class="cls-3" d="m95.91,54.7c1.83.15,2.93,2.12,2.86,3.83-.08,2.17-2.74,5.04-4.93,5.11,1.18,1.29.86,3.54-.46,4.69-1.32,1.15-3.35,1.24-4.94.5.9,1.39.82,3.35-.18,4.67-.5.67-1.2,1.16-1.73,1.82-1.56,1.95-.58,5.02-2.57,7.2-1.32,1.45-2.59,1-4.16,1.59-1.57.59-1.82,1.9-3.89,1.37-3.44-.89-5.55-5.12-6.09-8.42-.06-.34-.09-.68-.11-1.03-.03-.74.05-1.47.21-2.15-1.52-1.05-2.54-2.76-2.62-4.75-.11-2.58,1.42-4.84,3.66-5.8-.18-.67-.3-1.37-.33-2.1-.16-4.05,2.2-7.6,5.68-9.17,1.68-.75,3.59-.65,4.92-1.5,1.39-.89,1.33-2.74,3.5-3.1,1.72-.28,3.67.97,3.77,2.71,1.36-1.37,3.7-1.62,5.31-.56,1.61,1.06,2.31,3.31,1.59,5.1.17-.02.34-.02.5,0Z"/>
            <path class="cls-2" d="m78.26,68.74c.18,4.43-3.27,8.17-7.7,8.35-.25.01-.49,0-.74-.02-.06-.33-.09-.68-.1-1.02-.03-.74.05-1.47.21-2.16-1.52-1.04-2.55-2.76-2.63-4.75-.1-2.58,1.42-4.84,3.67-5.79-.18-.67-.3-1.38-.33-2.11-.16-4.05,2.19-7.61,5.67-9.18.51,1.01.82,2.13.87,3.33.1,2.38-.85,4.54-2.44,6.09,0,.05.02.11.02.17.01.27.01.53-.01.79,2.03,1.39,3.4,3.67,3.51,6.31Z"/>
          </g>
          <path class="cls-3" d="m83.68,76.46c.32.81-3.45,1.4-3.45,1.4,0,0-2.03,5.64-2.07,5.74-.52,1.44,5.7,5.16,6.7,5.69,2.2,1.16,4.68,1.87,7.17,1.79.41-.01-1.84-5.14-2.47-5.67.53-.84.47-1.94.19-2.9-.73-2.51-2.9-4.51-5.4-5.01l-.67-1.04Z"/>
        </g>
      </g>
      <g>
        <path class="cls-1" d="m169.89,51.48c-.74-1.54-1.85-3.45-3.25-5.6-5.97-9.21-17.19-23.02-28.36-32.75l.04-.03c-1.56-1.29-3.22-2.71-4.77-4-.28-.23-.58-.48-.73-.83-.13-.31-.13-.67-.13-1.01.02-1.32.04-2.65.05-3.97.01-.86,0-1.78-.44-2.5-.44-.72-1.5-1.1-2.1-.51-.33.32-.43.82-.5,1.28-.39,2.39-.69,4.8-.88,7.21-.2-1.97-.4-3.95-.6-5.92-.1-1.02-.39-2.27-1.34-2.5-.72-.18-1.46.41-1.75,1.13-.29.72-.25,1.53-.22,2.3.09,2.14.09,4.29,0,6.43-.5-1.94-1.01-3.87-1.51-5.81-.15-.56-.33-1.18-.79-1.5-.75-.52-1.83.07-2.2.94-.36.86-.22,1.86-.07,2.79.53,3.35,1.05,6.7,1.56,10.06.04.27.08.55-.05.79-.13.24-.39.36-.65.44-.79.23-1.63.18-2.43.34-.81.16-1.65.62-1.9,1.43-.32,1.03.49,2.13,1.46,2.52.97.39,2.04.28,3.08.27.65,0,1.33.07,1.94.29,3.66,4.78,12.91,16.87,21.85,29.45,0,0-5.37,6.53-11.88,14.69-2.73,3.41-5.64,7.11-8.44,10.74-.34.44-.67.87-1.01,1.31-1.01,1.32-2.03,2.65-3.05,3.97,1.13,4.09,3.03,7.98,5.63,11.35.44.56.88,1.09,1.35,1.62,1.05,1.16,2.02,1.42,3.29,2.12,1.06.58,1.8,1.6,2.68,2.52,2.02,2.09,4.27,3.99,6.63,5.69,1.38.99,2.8,1.92,4.25,2.79.13-.22.27-.45.41-.67.33-.53.66-1.07.98-1.62,1.39-2.32,2.78-4.74,4.15-7.2.27-.48.54-.96.81-1.46.47-.86.94-1.72,1.41-2.59.07-.14.15-.28.24-.42.54-1,1.07-2,1.61-3.01,1.27-2.4,2.53-4.82,3.76-7.24.04-.08.08-.16.12-.25.92-1.8,1.8-3.57,2.63-5.29,4.4-8.97,7.81-16.73,9.35-21.09.58-1.63.89-2.8.89-3.35,0-.69-.4-1.85-1.14-3.35Z"/>
        <path class="cls-7" d="m151.01,98.07c-6.97,12.59-14.3,24.3-20.86,28.87-13.74,9.56-25.01-1.12-27.82-9.83-.63-1.96-.85-3.82-.55-5.33,1.4-7.3,12.35-20.23,23.11-34.13,3.28,2.5,7.69,5.94,12.23,9.5,4.9,3.83,9.96,7.82,13.9,10.91Z"/>
      </g>
      <g>
        <path class="cls-8" d="m147.63,265.89s-1.73,32.06-3.9,38.12c-2.17,6.07-13.86,4.77-20.79,0-6.93-4.77-99.24-103.79-99.24-103.79l14-4.84c11.05,8.45,57.94,25.02,73.11,45.81l36.82,24.69Z"/>
        <path class="cls-7" d="m112.7,169.74l47.5-12.58s-7.8,82.75-9.1,98.34l-2.6,17.76-38.12-32.49s-7.36-29.46-8.23-42.46c-.87-13,10.55-28.57,10.55-28.57Z"/>
        <g>
          <path class="cls-4" d="m7.28,184.8l38.04,1.91s1.62,12.95-.15,13.55c-7.47-5.52-13.8-5.06-19.35,1.94,0,0-18.22-10.1-21.97-11.33-3.75-1.23-3.86-6.09-3.86-6.09l7.28.02Z"/>
          <path class="cls-7" d="m.76,187.94c-.72-1.58-.76-3.16-.76-3.16l7.28.02,38.04,1.91s.01,1.43,0,3.47l-44.56-2.23Z"/>
        </g>
      </g>
    </g>
  </g>
</svg>