<?xml version="1.0" encoding="UTF-8"?>
<svg id="Layer_2" data-name="Layer 2" xmlns="http://www.w3.org/2000/svg" viewBox="0 0 218.47 278.73">
  <defs>
    <style>
      .cls-1 {
        fill: #7a3920;
      }

      .cls-1, .cls-2, .cls-3, .cls-4, .cls-5, .cls-6, .cls-7, .cls-8 {
        stroke-width: 0px;
      }

      .cls-2 {
        fill: #4f8338;
      }

      .cls-3 {
        fill: #a1bc49;
      }

      .cls-4 {
        fill: #357036;
      }

      .cls-5 {
        fill: #db5717;
      }

      .cls-6 {
        fill: #7ea844;
      }

      .cls-7 {
        fill: #fff;
      }

      .cls-8 {
        fill: #ed6732;
      }
    </style>
  </defs>
  <g id="OBJECTS">
    <g>
      <g>
        <path class="cls-5" d="m148.03,167.04h-69.54l1.83,30.42c.82,13.66,5.52,26.85,13.82,37.73,1.02,1.34,2.03,2.56,3,3.56h0c0,1.27,7.22,2.3,16.13,2.3s16.13-1.03,16.13-2.3h.05c.99-1.03,2.03-2.28,3.08-3.67,8.3-10.93,13.01-24.17,13.79-37.87l1.73-30.17Z"/>
        <ellipse class="cls-8" cx="113.27" cy="167.04" rx="34.77" ry="4.97"/>
        <ellipse class="cls-1" cx="113.14" cy="167.04" rx="27.25" ry="2.89"/>
        <path class="cls-7" d="m113.27,211.54c-13.26,0-32.98-1.37-32.98-5.14,0-.28.22-.5.5-.5s.5.22.5.5c0,1.73,12.17,4.14,31.98,4.14s31.98-2.41,31.98-4.14c0-.28.22-.5.5-.5s.5.22.5.5c0,3.77-19.72,5.14-32.98,5.14Z"/>
        <path class="cls-7" d="m113.27,206.87c-13.44,0-33.44-1.39-33.44-5.21,0-.28.22-.5.5-.5s.5.22.5.5c0,1.76,12.34,4.21,32.44,4.21s32.44-2.45,32.44-4.21c0-.28.22-.5.5-.5s.5.22.5.5c0,3.82-20,5.21-33.44,5.21Z"/>
      </g>
      <g>
        <path class="cls-6" d="m133.78,28.76s-29.73,59.34-19.9,138.29h19.9s-17.25-51.24,0-138.29Z"/>
        <path class="cls-4" d="m121.23,167.04h12.55S98.75,65.09,48.3,24.31c0,0,39.34,59.93,48.1,82.34,8.28,21.21,11.76,47.32,24.83,60.39Z"/>
        <path class="cls-2" d="m85.09,103.85c-22.12,3.74-32.94,48.23-33.33,84.89,0,0,20.19-74.11,34.9-74.11s9.41,32.48,24.9,52.41h16.27s-16.08-67.71-42.74-63.2Z"/>
        <path class="cls-4" d="m0,158.15s21.37-44.51,53.72-45.68c32.35-1.18,65.09,54.57,65.09,54.57h-15.68s-22.15-45.16-44.9-45.16S29.8,141.49,0,158.15Z"/>
        <path class="cls-6" d="m125.41,167.04s-7.32-18.93-22.48-17.44c-15.16,1.49-22.48,13.25-25.1,39.13-2.61,25.88-3.92,63.52-13.07,71.1,0,0,16.73-11.27,23.53-67.71,6.8-56.44,37.12-25.1,37.12-25.1Z"/>
        <path class="cls-4" d="m102.34,159.72c.2-.04.39-.06.58-.06,3.9-.02,6.54,7.38,6.54,7.38h15.95s-12.36-12.77-23.07-7.32Z"/>
        <path class="cls-3" d="m105.87,167.04s-1.37-15.55-20.59-12.02c-19.21,3.53-50.19,39.8-79.8,38.62,0,0,18.68,7.04,41.62-6.3,22.94-13.33,37-27.43,47.97-20.08l10.78-.23Z"/>
        <path class="cls-3" d="m151.94,0s-12.29,9.57-16.86,44.31c-5.62,42.74-4.84,106.52-19.48,122.73h16.99s12.02-38.69,13.07-97.24c1.05-58.56,6.27-69.8,6.27-69.8Z"/>
        <path class="cls-6" d="m169.07,17.78s-9.56,44.39-30.06,77.9c-20.5,33.51-31.63,71.36-31.63,71.36h18.04s7.58-40.52,23.79-71.36c16.21-30.85,25.68-62.61,19.87-77.9Z"/>
        <g>
          <path class="cls-4" d="m218.47,149.52s-2.88-41.56-44.44-41.56-62.48,59.08-62.48,59.08h16.27s16.68-44.44,38.88-50.71c22.2-6.27,51.76,33.19,51.76,33.19Z"/>
          <path class="cls-6" d="m218.47,149.52s-2.88-41.56-44.44-41.56c-13.05,0-24.06,5.82-33.03,13.81,12.19-5.53,21-6.75,29.78-6.1,0,0,0,0,0,0,21.57-1.02,47.68,33.84,47.68,33.84Z"/>
        </g>
        <path class="cls-6" d="m125.41,167.04h12.29s21.44-49.93,60.12-33.98c0,0-12.49-16.4-37.64-2.74-18.3,9.94-34.77,36.73-34.77,36.73Z"/>
        <path class="cls-4" d="m132.6,167.04h11.7s17.65-4.18,24.7,6.01c7.06,10.19,22.94,73.91,22.94,73.91,0,0,4.56-65.41-21.15-82.05-19.53-12.65-38.19,2.12-38.19,2.12Z"/>
        <path class="cls-2" d="m170.79,164.92c-6.04-3.91-11.99-5.19-17.33-5.11,2.66,1.21,8.49,4.51,14.52,11.96.36.4.71.83,1.03,1.29,7.06,10.19,22.94,73.91,22.94,73.91,0,0,4.56-65.41-21.15-82.05Z"/>
        <path class="cls-2" d="m118.81,167.04s.33-15.81,14.97-12.55c14.64,3.27,18.76,41.3,15.23,76.2-3.53,34.9-11.96,48.03-11.96,48.03,0,0,10.96-94.47-3.27-111.69h-14.97Z"/>
      </g>
    </g>
  </g>
</svg>