<?xml version="1.0" encoding="UTF-8"?>
<svg id="Layer_2" data-name="Layer 2" xmlns="http://www.w3.org/2000/svg" viewBox="0 0 79.85 182.74">
  <defs>
    <style>
      .cls-1 {
        fill: #7a3920;
      }

      .cls-1, .cls-2, .cls-3, .cls-4, .cls-5, .cls-6, .cls-7, .cls-8, .cls-9 {
        stroke-width: 0px;
      }

      .cls-2 {
        fill: #4f8338;
      }

      .cls-3 {
        fill: #a1bc49;
      }

      .cls-4 {
        fill: #357036;
      }

      .cls-5 {
        fill: #e0381e;
      }

      .cls-6 {
        fill: #fbca30;
      }

      .cls-7 {
        fill: #7ea844;
      }

      .cls-8 {
        fill: #fff;
      }

      .cls-9 {
        fill: #efb718;
      }
    </style>
  </defs>
  <g id="OBJECTS">
    <g>
      <g>
        <path class="cls-9" d="m74.69,108.73H5.16l1.83,30.42c.82,13.66,5.52,26.85,13.82,37.73,1.02,1.34,2.04,2.56,3,3.56h0c0,1.27,7.22,2.3,16.13,2.3s16.13-1.03,16.13-2.3h.05c.99-1.03,2.03-2.28,3.08-3.67,8.3-10.93,13.01-24.17,13.79-37.87l1.73-30.17Z"/>
        <ellipse class="cls-6" cx="39.93" cy="108.73" rx="34.77" ry="4.97"/>
        <ellipse class="cls-1" cx="39.8" cy="108.73" rx="27.25" ry="2.89"/>
        <path class="cls-8" d="m39.93,153.22c-13.26,0-32.98-1.37-32.98-5.14,0-.28.22-.5.5-.5s.5.22.5.5c0,1.73,12.17,4.14,31.98,4.14s31.98-2.41,31.98-4.14c0-.28.22-.5.5-.5s.5.22.5.5c0,3.77-19.72,5.14-32.98,5.14Z"/>
        <path class="cls-8" d="m39.93,148.55c-13.44,0-33.44-1.39-33.44-5.21,0-.28.22-.5.5-.5s.5.22.5.5c0,1.76,12.34,4.21,32.44,4.21s32.44-2.45,32.44-4.21c0-.28.22-.5.5-.5s.5.22.5.5c0,3.82-20,5.21-33.44,5.21Z"/>
      </g>
      <g>
        <path class="cls-4" d="m47.73,109.1l-.91-.41c4.71-10.55,13.72-34.05,13.81-34.29l.93.36c-.09.24-9.11,23.76-13.83,34.34Z"/>
        <path class="cls-4" d="m44.19,78.73l-1-.05c1.47-28.39-19.99-59.42-20.21-59.73l.82-.57c.22.31,21.88,31.63,20.39,60.35Z"/>
        <path class="cls-5" d="m30.72,6.94L12.32,0l-2.73,19.47c-1,7.14,4.77,13.41,11.96,13l9.7-.55,5.13-8.25c3.81-6.12,1.07-14.19-5.67-16.73Z"/>
        <path class="cls-6" d="m23.39,18.66c-1.07.64-1.42,2.02-.79,3.09l6.12,10.32,2.54-.14,1.34-2.16-6.12-10.32c-.64-1.07-2.02-1.42-3.09-.79Z"/>
        <path class="cls-4" d="m40.51,108.97c-4.68-30.02,21.32-74.75,21.59-75.19l.86.51c-.26.45-26.08,44.86-21.46,74.53l-.99.15Z"/>
        <path class="cls-5" d="m57.07,25.31l13.69-5.16,2.03,14.49c.75,5.31-3.55,9.98-8.9,9.67l-7.22-.41-3.82-6.14c-2.83-4.55-.8-10.56,4.22-12.45Z"/>
        <path class="cls-6" d="m62.52,34.03c.8.47,1.06,1.5.59,2.3l-4.55,7.68-1.89-.11-1-1.6,4.55-7.68c.47-.8,1.5-1.06,2.3-.59Z"/>
        <g>
          <path class="cls-3" d="m31.46,54.69c-6.03-3.17-12.45-4.63-16.82-5.31-.06-.14-.12-.27-.18-.42,30.57-12.83,27.49,11.24,27.49,11.24,0,0-.08.1-.23.28-2.89-1.14-5.82-3.46-10.26-5.79Z"/>
          <path class="cls-7" d="m14.64,49.38c4.37.68,10.79,2.14,16.82,5.31,4.44,2.33,7.37,4.66,10.26,5.79-1.89,2.26-15.23,16.68-27.08-11.1Z"/>
        </g>
        <g>
          <path class="cls-2" d="m20.25,80.98c-6.87-5.71-14.71-9.35-20.14-11.41-.04-.2-.08-.38-.12-.58,42.74-8.12,32.21,21.93,32.21,21.93,0,0-.13.11-.37.3-3.4-2.25-6.53-6.03-11.59-10.24Z"/>
          <path class="cls-4" d="m.12,69.57c5.43,2.06,13.26,5.7,20.14,11.41,5.06,4.2,8.18,7.99,11.59,10.24-3.04,2.38-24.1,17.24-31.72-21.64Z"/>
        </g>
        <g>
          <path class="cls-2" d="m60.62,74.83c3.96-10.5,10.26-19.33,14.9-24.95-.08-.24-.15-.47-.23-.71-51.69,17.66-21.56,43.92-21.56,43.92,0,0,.21.04.59.1,2.32-4.57,3.38-10.64,6.3-18.36Z"/>
          <path class="cls-4" d="m75.52,49.89c-4.64,5.62-10.94,14.45-14.9,24.95-2.91,7.73-3.98,13.8-6.3,18.36,4.8.71,37,3.87,21.2-43.31Z"/>
        </g>
        <g>
          <path class="cls-3" d="m54.24,73.29c6.03-3.17,12.45-4.63,16.82-5.31.06-.14.12-.27.18-.42-30.57-12.83-27.49,11.24-27.49,11.24,0,0,.08.1.23.28,2.89-1.14,5.82-3.46,10.26-5.79Z"/>
          <path class="cls-7" d="m71.07,67.98c-4.37.68-10.79,2.14-16.82,5.31-4.44,2.33-7.37,4.66-10.26,5.79,1.89,2.26,15.23,16.68,27.08-11.1Z"/>
        </g>
        <path class="cls-4" d="m42.92,108.98c-5.11-15.12-19.2-24.64-19.34-24.74l.28-.42c.14.1,14.38,9.71,19.54,24.99l-.47.16Z"/>
        <g>
          <path class="cls-3" d="m34.89,98.65c-3.46-5.87-8.15-10.49-11.51-13.36.02-.15.04-.3.07-.45,32.75,5.17,17.47,24.02,17.47,24.02,0,0-.12.05-.34.12-1.86-2.49-3.13-6.01-5.68-10.33Z"/>
          <path class="cls-7" d="m23.38,85.28c3.36,2.88,8.05,7.5,11.51,13.36,2.55,4.32,3.82,7.84,5.68,10.33-2.79.93-21.72,6.17-17.19-23.69Z"/>
        </g>
      </g>
    </g>
  </g>
</svg>