<?xml version="1.0" encoding="UTF-8"?>
<svg id="Layer_2" data-name="Layer 2" xmlns="http://www.w3.org/2000/svg" viewBox="0 0 202.67 166.77">
  <defs>
    <style>
      .cls-1 {
        fill: #f9bbbb;
      }

      .cls-1, .cls-2, .cls-3, .cls-4, .cls-5, .cls-6 {
        stroke-width: 0px;
      }

      .cls-2 {
        fill: #7a3920;
      }

      .cls-3 {
        fill: #4f8338;
      }

      .cls-4 {
        fill: #357036;
      }

      .cls-5 {
        fill: #7ea844;
      }

      .cls-6 {
        fill: #fca8a8;
      }
    </style>
  </defs>
  <g id="OBJECTS">
    <g>
      <g>
        <path class="cls-6" d="m84.42,92.76h69.54l-1.83,30.42c-.82,13.66-5.52,26.85-13.82,37.73-1.02,1.34-2.03,2.56-3,3.56h0c0,1.27-7.22,2.3-16.13,2.3s-16.13-1.03-16.13-2.3h-.05c-.99-1.03-2.03-2.28-3.08-3.67-8.3-10.93-13.01-24.17-13.79-37.87l-1.73-30.17Z"/>
        <ellipse class="cls-1" cx="119.18" cy="92.76" rx="34.77" ry="4.97"/>
        <ellipse class="cls-2" cx="119.32" cy="92.76" rx="27.25" ry="2.89"/>
        <polygon class="cls-1" points="96.09 115.24 98.52 112.81 99.41 116.13 100.3 119.44 96.98 118.55 93.67 117.66 96.09 115.24"/>
        <polygon class="cls-1" points="120.32 105.7 123.75 105.7 122.03 108.67 120.32 111.64 118.6 108.67 116.89 105.7 120.32 105.7"/>
        <polygon class="cls-1" points="142.26 110.14 139.84 107.72 138.95 111.03 138.06 114.34 141.38 113.45 144.69 112.57 142.26 110.14"/>
        <polygon class="cls-1" points="132.6 143.08 130.17 140.65 133.49 139.76 136.8 138.88 135.91 142.19 135.02 145.5 132.6 143.08"/>
        <polygon class="cls-1" points="122.81 154.47 120.38 156.89 119.49 153.58 118.61 150.27 121.92 151.15 125.23 152.04 122.81 154.47"/>
        <polygon class="cls-1" points="100.75 139.31 98.33 141.74 101.64 142.63 104.95 143.51 104.06 140.2 103.18 136.89 100.75 139.31"/>
        <polygon class="cls-1" points="132.2 127.22 134.62 129.64 131.31 130.53 128 131.42 128.88 128.1 129.77 124.79 132.2 127.22"/>
        <polygon class="cls-1" points="112.65 129.63 116.08 129.63 114.36 126.66 112.65 123.69 110.93 126.66 109.22 129.63 112.65 129.63"/>
      </g>
      <g>
        <path class="cls-4" d="m30.41,152.15c-.09,0-.17-.02-.25-.07-18.22-10.63-15.2-43.49-13.84-53.3.72-5.21,8.28-50.88,50.95-50.88,36.04,0,49.1,44.87,49.23,45.33.07.27-.08.54-.35.62-.27.07-.54-.08-.62-.35-.13-.45-12.99-44.6-48.27-44.6-41.82,0-49.25,44.9-49.96,50.02-1.34,9.66-4.33,41.99,13.35,52.3.24.14.32.45.18.68-.09.16-.26.25-.43.25Z"/>
        <path class="cls-4" d="m25.45,126.53c-.16,0-.33-.08-.42-.23-.15-.23-.08-.54.15-.69,11.75-7.57,11.78-15.5,11.82-26.49.03-6.76.06-14.43,2.6-23.93,6.82-25.44,40.02-25.36,40.36-25.35.28,0,.5.23.49.51,0,.27-.23.49-.5.49,0,0-.02,0-.04,0-1.26,0-32.83.3-39.34,24.61-2.51,9.38-2.54,16.98-2.57,23.68-.04,11.3-.08,19.47-12.28,27.32-.08.05-.18.08-.27.08Z"/>
        <path class="cls-4" d="m122.43,93.85c-.23,0-.43-.16-.49-.39-.1-.43-9.85-43.5,5.69-63.06,5.12-6.44,12.43-9.7,21.73-9.7.28,0,.5.22.5.5s-.22.5-.5.5c-8.98,0-16.03,3.14-20.94,9.32-15.24,19.18-5.6,61.79-5.5,62.21.06.27-.11.54-.37.6-.04,0-.08.01-.11.01Z"/>
        <path class="cls-4" d="m155.1,120.52c-.11,0-.22-.04-.32-.11-4.12-3.36,1.36-12.87,7.7-23.89,7.25-12.59,15.46-26.87,11.57-35.14-1.6-3.4-5.09-5.51-10.67-6.47-8.77-1.5-15.84.12-21.02,4.83-11.62,10.57-10.05,33.36-10.03,33.59.02.28-.19.52-.46.54-.26,0-.52-.19-.54-.46-.07-.95-1.63-23.5,10.35-34.4,5.42-4.93,12.77-6.63,21.86-5.08,5.85,1,9.68,3.37,11.4,7.03,4.11,8.75-4.24,23.26-11.6,36.07-5.86,10.18-11.39,19.8-7.93,22.62.21.17.25.49.07.7-.1.12-.24.18-.39.18Z"/>
        <path class="cls-4" d="m59.43,122.87c-.12,0-.24-.04-.33-.12-10.24-9.02-13.74-21.35-9.35-32.97,3.79-10.04,12.83-16.79,22.49-16.79,20.45,0,31.95,19.92,32.07,20.12.14.24.05.54-.19.68-.24.14-.55.05-.68-.19-.11-.2-11.34-19.61-31.2-19.61-9.25,0-17.91,6.49-21.56,16.15-4.23,11.21-.84,23.12,9.08,31.86.21.18.23.5.04.7-.1.11-.24.17-.37.17Z"/>
        <path class="cls-4" d="m51.58,51.31c-.06,0-.13-.01-.19-.04-.06-.02-5.73-2.34-12.99-2.39-.28,0-.5-.23-.5-.5s.23-.5.5-.5h0c7.46.05,13.13,2.36,13.36,2.46.25.11.38.4.27.65-.08.19-.27.31-.46.31Z"/>
        <path class="cls-4" d="m28.99,83.74s-.04,0-.06,0c-.27-.03-.47-.28-.43-.56l2.26-18.34c.03-.27.29-.47.56-.43.27.03.47.28.44.56l-2.26,18.34c-.03.25-.25.44-.5.44Z"/>
        <path class="cls-4" d="m9.86,97.46c-.05,0-.11,0-.16-.03-.26-.09-.4-.37-.31-.63,2.86-8.32,10.42-12.57,10.74-12.75.24-.14.55-.05.68.2.13.24.05.55-.2.68-.08.04-7.55,4.25-10.28,12.2-.07.21-.27.34-.47.34Z"/>
        <path class="cls-4" d="m87.97,54.35c-.23,0-.44-.16-.49-.4-.01-.07-1.42-6.84-7.84-11.81-.22-.17-.26-.48-.09-.7.17-.22.48-.26.7-.09,6.72,5.21,8.15,12.12,8.2,12.41.05.27-.12.53-.39.59-.03,0-.07,0-.1,0Z"/>
        <g>
          <path class="cls-5" d="m27.88,55.09c4.81.81,15.2-1.44,16.01-6.25.81-4.81-8.25-10.36-13.06-11.17-4.81-.81-9.37,2.43-10.19,7.24-.81,4.81,2.43,9.37,7.24,10.19Z"/>
          <path class="cls-4" d="m43.89,49.34c-.07,0-.14-.01-.21-.05-8.6-3.97-18.71-3.19-18.81-3.18-.28.02-.52-.18-.54-.46-.02-.28.18-.52.46-.54.1-.01,10.48-.81,19.31,3.27.25.12.36.41.24.66-.08.18-.27.29-.45.29Z"/>
        </g>
        <g>
          <path class="cls-5" d="m15.2,83.59c4.64-1.52,12.77-8.36,11.25-13-1.52-4.64-12.13-5.31-16.76-3.79-4.64,1.52-7.16,6.52-5.64,11.15s6.52,7.16,11.15,5.64Z"/>
          <path class="cls-4" d="m8.08,77.13c-.17,0-.33-.08-.42-.23-.15-.23-.08-.54.15-.69.09-.06,8.89-5.6,18.61-6.11.27-.04.51.2.53.47.01.28-.2.51-.47.53-9.45.5-18.04,5.9-18.12,5.96-.08.05-.18.08-.27.08Z"/>
        </g>
        <g>
          <path class="cls-5" d="m66.84,124.71c-1.96-4.47-9.55-11.91-14.01-9.95-4.47,1.96-4.13,12.58-2.17,17.05,1.96,4.47,7.17,6.5,11.64,4.54s6.5-7.17,4.54-11.64Z"/>
          <path class="cls-4" d="m60.59,132.96c-.15,0-.3-.07-.39-.19-.06-.08-6.42-8.31-7.87-17.94-.04-.27.15-.53.42-.57.28-.04.53.15.57.42,1.4,9.36,7.6,17.39,7.67,17.47.17.22.13.53-.09.7-.09.07-.2.11-.31.11Z"/>
        </g>
        <g>
          <path class="cls-3" d="m40.32,148.99c-3.55-3.35-13.44-7.23-16.79-3.68-3.35,3.55,1.12,13.19,4.67,16.54,3.55,3.35,9.14,3.18,12.49-.37,3.35-3.55,3.18-9.14-.37-12.49Z"/>
          <path class="cls-4" d="m37.6,159.07c-.08,0-.16-.02-.24-.06-.09-.05-9.16-5.14-14.25-13.43-.14-.24-.07-.54.16-.69.23-.15.54-.07.69.16,4.95,8.06,13.8,13.03,13.89,13.08.24.13.33.44.19.68-.09.17-.26.26-.44.26Z"/>
        </g>
        <g>
          <path class="cls-3" d="m16.3,137.53c4.64-1.52,12.77-8.36,11.25-13-1.52-4.64-12.13-5.31-16.76-3.79-4.64,1.52-7.16,6.52-5.64,11.15,1.52,4.64,6.52,7.16,11.15,5.64Z"/>
          <path class="cls-4" d="m9.18,131.07c-.16,0-.33-.08-.42-.23-.15-.23-.08-.54.15-.69.09-.06,8.89-5.6,18.61-6.11.27-.03.51.2.53.47.01.28-.2.51-.47.53-9.46.5-18.04,5.9-18.12,5.96-.08.05-.18.08-.27.08Z"/>
        </g>
        <g>
          <path class="cls-5" d="m34.6,92.32c.33-3.45-1.81-10.7-5.26-11.03s-6.92,6.38-7.24,9.84c-.33,3.45,2.2,6.52,5.66,6.85s6.52-2.2,6.85-5.66Z"/>
          <path class="cls-4" d="m28.03,95.47c-.24,0-.46-.18-.49-.42-.05-.3-1.12-7.42,1.33-13.93.1-.26.39-.39.64-.29.26.1.39.38.29.64-2.35,6.27-1.29,13.36-1.28,13.43.04.27-.14.53-.42.57-.03,0-.05,0-.08,0Z"/>
        </g>
        <g>
          <path class="cls-5" d="m44.18,91.86c3.42-.59,9.85-4.54,9.27-7.96-.59-3.42-7.97-5-11.39-4.42-3.42.59-5.71,3.83-5.13,7.25.59,3.42,3.83,5.71,7.25,5.13Z"/>
          <path class="cls-4" d="m39.91,86.73c-.19,0-.37-.11-.46-.3-.11-.25,0-.55.25-.66.28-.12,6.87-3.02,13.79-2.36.27.03.48.27.45.54-.03.27-.26.47-.54.45-6.67-.64-13.23,2.25-13.29,2.28-.07.03-.14.04-.2.04Z"/>
        </g>
        <g>
          <path class="cls-3" d="m69.59,72.77c2.6,2.3,9.72,4.83,12.01,2.23,2.3-2.6-1.1-9.35-3.7-11.64-2.6-2.3-6.57-2.05-8.86.55s-2.05,6.57.55,8.86Z"/>
          <path class="cls-4" d="m81.6,75.5c-.16,0-.32-.08-.42-.22-3.68-5.59-10.05-8.89-10.11-8.93-.25-.13-.34-.43-.22-.67.13-.24.43-.34.67-.22.27.14,6.66,3.46,10.49,9.27.15.23.09.54-.14.69-.08.06-.18.08-.27.08Z"/>
        </g>
        <g>
          <path class="cls-5" d="m107.17,52.22c2.6,2.3,9.72,4.83,12.01,2.23,2.3-2.6-1.1-9.35-3.7-11.64-2.6-2.3-6.57-2.05-8.86.55-2.3,2.6-2.05,6.57.55,8.86Z"/>
          <path class="cls-4" d="m119.18,54.95c-.16,0-.32-.08-.42-.22-3.68-5.58-10.05-8.89-10.11-8.92-.25-.13-.34-.43-.22-.67.13-.24.43-.34.67-.22.27.14,6.66,3.46,10.49,9.26.15.23.09.54-.14.69-.08.06-.18.08-.27.08Z"/>
        </g>
        <g>
          <path class="cls-5" d="m86.59,91.82c3.39-.74,9.63-4.99,8.89-8.38s-8.19-4.64-11.58-3.89c-3.39.74-5.53,4.09-4.79,7.48.74,3.39,4.09,5.53,7.48,4.79Z"/>
          <path class="cls-4" d="m82.06,86.89c-.18,0-.36-.1-.45-.28-.12-.25-.02-.55.22-.67.27-.14,6.74-3.33,13.67-2.99.28.01.49.25.48.52-.01.28-.26.51-.52.47-6.7-.33-13.11,2.85-13.17,2.89-.07.04-.15.05-.22.05Z"/>
        </g>
        <g>
          <path class="cls-5" d="m152.23,108.03c3.39-.74,9.63-4.99,8.89-8.38-.74-3.39-8.19-4.64-11.58-3.89-3.39.74-5.53,4.09-4.79,7.48.74,3.39,4.09,5.53,7.48,4.79Z"/>
          <path class="cls-4" d="m147.7,103.09c-.18,0-.36-.1-.45-.28-.12-.25-.02-.55.22-.67.27-.14,6.73-3.34,13.67-2.99.28.01.49.25.48.52-.01.28-.25.5-.52.47-6.68-.32-13.11,2.85-13.17,2.89-.07.04-.15.05-.22.05Z"/>
        </g>
        <g>
          <path class="cls-5" d="m48.05,113.16c-1.62-3.07-7.37-7.96-10.44-6.35s-2.29,9.13-.67,12.2c1.62,3.07,5.41,4.25,8.48,2.63,3.07-1.62,4.25-5.41,2.63-8.48Z"/>
          <path class="cls-4" d="m44.01,119.47c-.14,0-.27-.06-.37-.16-.2-.23-5-5.6-6.52-12.38-.06-.27.11-.54.38-.6.27-.06.54.11.6.38,1.46,6.52,6.24,11.88,6.29,11.93.19.21.17.52-.04.71-.1.09-.22.13-.33.13Z"/>
        </g>
        <g>
          <path class="cls-3" d="m48.39,66.29c.33-3.45-1.81-10.7-5.26-11.03s-6.92,6.38-7.24,9.84c-.33,3.45,2.2,6.52,5.66,6.85,3.45.33,6.52-2.2,6.85-5.66Z"/>
          <path class="cls-4" d="m41.83,69.44c-.24,0-.46-.18-.49-.42-.05-.3-1.12-7.42,1.33-13.93.1-.26.39-.39.64-.29.26.1.39.38.29.64-2.35,6.26-1.29,13.35-1.28,13.42.04.27-.14.53-.42.57-.03,0-.05,0-.08,0Z"/>
        </g>
        <g>
          <path class="cls-5" d="m65.68,65.44c1.28-3.22,1.24-10.78-1.98-12.05-3.22-1.28-8.42,4.21-9.7,7.43-1.28,3.22.3,6.87,3.53,8.15,3.22,1.28,6.87-.3,8.15-3.53Z"/>
          <path class="cls-4" d="m58.64,66.66s-.04,0-.06,0c-.27-.04-.47-.29-.43-.56.04-.3.99-7.44,5.15-13.01.16-.22.48-.27.7-.1.22.17.27.48.1.7-4,5.36-4.95,12.47-4.96,12.54-.03.25-.25.44-.5.44Z"/>
        </g>
        <g>
          <path class="cls-3" d="m61.76,92.48c-.71-3.4-4.89-9.68-8.29-8.98s-4.72,8.14-4.01,11.54c.71,3.4,4.03,5.57,7.43,4.87,3.4-.71,5.57-4.03,4.87-7.43Z"/>
          <path class="cls-4" d="m56.28,97.46c-.19,0-.36-.1-.45-.28-.13-.27-3.26-6.76-2.85-13.7.02-.28.26-.5.53-.47.28.02.49.25.47.53-.39,6.67,2.72,13.14,2.75,13.2.12.25.02.55-.23.67-.07.03-.15.05-.22.05Z"/>
        </g>
        <g>
          <path class="cls-5" d="m12.03,107.2c1.39-3.18,1.63-10.73-1.55-12.12-3.18-1.39-8.56,3.9-9.96,7.08s.06,6.88,3.23,8.27,6.88-.06,8.27-3.23Z"/>
          <path class="cls-4" d="m4.97,108.16s-.05,0-.08,0c-.27-.04-.46-.3-.41-.57.05-.3,1.26-7.4,5.62-12.82.17-.21.49-.25.7-.08.21.17.25.49.08.7-4.19,5.21-5.4,12.28-5.41,12.35-.04.25-.25.42-.49.42Z"/>
        </g>
        <g>
          <path class="cls-5" d="m65.72,43.15c4.02,2.77,14.38,5.11,17.15,1.09,2.77-4.02-3.11-12.87-7.13-15.64-4.02-2.77-9.52-1.76-12.29,2.26s-1.76,9.52,2.26,12.29Z"/>
          <path class="cls-4" d="m82.87,44.74c-.14,0-.28-.06-.38-.18-6.12-7.22-15.62-10.79-15.71-10.82-.26-.1-.39-.38-.3-.64.1-.26.38-.39.64-.3.1.04,9.84,3.69,16.13,11.11.18.21.15.53-.06.7-.09.08-.21.12-.32.12Z"/>
        </g>
        <g>
          <path class="cls-5" d="m85.97,40.23c2.14,4.39,10.02,11.52,14.41,9.38,4.39-2.14,3.62-12.74,1.48-17.12-2.14-4.39-7.43-6.21-11.82-4.07-4.39,2.14-6.21,7.43-4.07,11.82Z"/>
          <path class="cls-4" d="m100.37,50.11c-.24,0-.44-.17-.49-.41-1.78-9.29-8.3-17.07-8.37-17.14-.18-.21-.15-.53.06-.7.21-.18.53-.15.7.06.07.08,6.75,8.05,8.59,17.6.05.27-.13.53-.4.59-.03,0-.06,0-.09,0Z"/>
        </g>
        <path class="cls-4" d="m122.34,42.24c-.2,0-.39-.12-.47-.33-2.94-8.02-.16-21.34-.04-21.91.06-.27.32-.44.59-.38.27.06.44.32.39.59-.03.13-2.84,13.6,0,21.35.1.26-.04.55-.3.64-.06.02-.11.03-.17.03Z"/>
        <path class="cls-4" d="m119.44,70.95c-.16,0-.31-.08-.41-.22-.16-.23-.1-.54.13-.7,9.1-6.3,12.08-19.21,12.11-19.34.06-.27.33-.43.6-.38.27.06.44.33.38.6-.12.54-3.09,13.42-12.52,19.94-.09.06-.19.09-.28.09Z"/>
        <path class="cls-4" d="m103.87,68.36s-.04,0-.06,0c-.27-.03-.47-.28-.44-.55,0-.09.93-8.93-3.46-17.98-.12-.25-.02-.55.23-.67.25-.12.55-.02.67.23,4.52,9.32,3.6,18.16,3.56,18.53-.03.26-.25.44-.5.44Z"/>
        <g>
          <path class="cls-5" d="m134.48,11.31c-1.37,4.68-7.93,13.04-12.61,11.68-4.68-1.37-5.72-11.94-4.35-16.63,1.37-4.68,6.27-7.37,10.96-6.01,4.68,1.37,7.37,6.27,6.01,10.96Z"/>
          <path class="cls-4" d="m121.87,23.49h0c-.28,0-.5-.23-.49-.51.19-9.73,5.43-18.71,5.49-18.8.14-.24.45-.32.69-.18.24.14.32.45.18.68-.05.09-5.16,8.85-5.35,18.31,0,.27-.23.49-.5.49Z"/>
        </g>
        <g>
          <path class="cls-5" d="m158.64,30.67c-4.88-.1-14.66-4.25-14.56-9.13.1-4.88,10.04-8.63,14.92-8.54s8.75,4.13,8.65,9.01c-.1,4.88-4.13,8.75-9.01,8.65Z"/>
          <path class="cls-4" d="m163.4,22.43s-.09,0-.13-.02c-.1-.03-9.9-2.68-19.07-.39-.27.06-.54-.1-.61-.36-.07-.27.1-.54.36-.61,9.44-2.35,19.48.37,19.58.4.27.07.42.35.35.61-.06.22-.26.37-.48.37Z"/>
        </g>
        <g>
          <path class="cls-3" d="m123,40.2c-.63,4.84,2.02,15.13,6.86,15.76,4.84.63,10.03-8.64,10.66-13.48.63-4.84-2.78-9.27-7.62-9.9-4.84-.63-9.27,2.78-9.9,7.62Z"/>
          <path class="cls-4" d="m129.86,56.45c-.06,0-.13-.01-.19-.04-.25-.11-.38-.4-.27-.65,3.63-8.75,2.47-18.82,2.46-18.92-.03-.27.16-.52.44-.56.28-.04.52.16.56.44.01.1,1.21,10.44-2.53,19.42-.08.19-.27.31-.46.31Z"/>
        </g>
        <g>
          <path class="cls-5" d="m132.71,82.33c-2.6,2.3-9.72,4.83-12.01,2.23-2.3-2.6,1.1-9.35,3.7-11.64,2.6-2.3,6.57-2.05,8.86.55,2.3,2.6,2.05,6.57-.55,8.86Z"/>
          <path class="cls-4" d="m120.7,85.06c-.09,0-.19-.03-.27-.08-.23-.15-.29-.46-.14-.69,3.83-5.8,10.22-9.13,10.49-9.26.24-.13.55-.03.67.22.13.25.03.55-.22.67-.06.03-6.43,3.34-10.11,8.92-.1.15-.26.22-.42.22Z"/>
        </g>
        <g>
          <path class="cls-5" d="m172.97,51.12c-2.6,2.3-9.72,4.83-12.01,2.23-2.3-2.6,1.1-9.35,3.7-11.64,2.6-2.3,6.57-2.05,8.86.55,2.3,2.6,2.05,6.57-.55,8.86Z"/>
          <path class="cls-4" d="m160.96,53.85c-.09,0-.19-.03-.27-.08-.23-.15-.29-.46-.14-.69,3.83-5.81,10.22-9.13,10.49-9.27.24-.13.55-.03.67.22.13.25.03.55-.22.67-.06.03-6.43,3.34-10.11,8.93-.1.15-.26.22-.42.22Z"/>
        </g>
        <path class="cls-4" d="m140.74,61.13s-.06,0-.09,0c-.27-.05-.45-.31-.4-.58.07-.38,1.73-9.39,7.62-16.62.17-.21.49-.25.7-.07.21.17.25.49.07.7-5.73,7.02-7.4,16.07-7.41,16.16-.04.24-.25.41-.49.41Z"/>
        <path class="cls-4" d="m158.35,71.55c-.1,0-.2-.03-.29-.09-.23-.16-.28-.47-.12-.7,1.89-2.71,2.55-5.39,1.95-7.97-1.13-4.9-6.43-7.88-6.49-7.91-.24-.13-.33-.44-.2-.68.13-.24.44-.33.68-.2.23.13,5.74,3.22,6.98,8.56.67,2.87-.04,5.82-2.1,8.77-.1.14-.25.21-.41.21Z"/>
        <path class="cls-4" d="m185.91,65.63c-.15,0-.29-.07-.39-.19-6.54-8.3-14.69-7.99-14.78-7.99-.28.03-.51-.2-.52-.47-.01-.28.2-.51.47-.53.35-.02,8.74-.36,15.62,8.37.17.22.13.53-.08.7-.09.07-.2.11-.31.11Z"/>
        <g>
          <path class="cls-5" d="m159.06,43.49c-2.6,2.3-9.72,4.83-12.01,2.23s1.1-9.35,3.7-11.64c2.6-2.3,6.57-2.05,8.86.55,2.3,2.6,2.05,6.57-.55,8.86Z"/>
          <path class="cls-4" d="m147.05,46.21c-.09,0-.19-.03-.27-.08-.23-.15-.29-.46-.14-.69,3.83-5.81,10.22-9.13,10.49-9.27.24-.13.55-.03.67.22.13.25.03.55-.22.67-.06.03-6.43,3.34-10.11,8.93-.1.15-.26.22-.42.22Z"/>
        </g>
        <g>
          <path class="cls-5" d="m187.75,78.81c-3.54-3.36-7.96-13.02-4.6-16.56,3.36-3.54,13.24.39,16.77,3.75,3.54,3.36,3.68,8.95.32,12.49-3.36,3.54-8.95,3.68-12.49.32Z"/>
          <path class="cls-4" d="m197.16,76.07c-.17,0-.33-.08-.42-.23-.05-.09-5.51-8.65-13.83-13.14-.24-.13-.33-.43-.2-.68.13-.24.43-.33.68-.2,8.56,4.62,14.14,13.4,14.2,13.49.15.23.08.54-.16.69-.08.05-.17.08-.27.08Z"/>
        </g>
        <g>
          <path class="cls-5" d="m166.46,96.3c-.94-4.79,1.04-15.23,5.83-16.17s10.57,7.97,11.51,12.76-2.18,9.43-6.97,10.37c-4.79.94-9.43-2.18-10.37-6.97Z"/>
          <path class="cls-4" d="m176.01,99.6s-.02,0-.03,0c-.28-.01-.49-.25-.47-.53,0-.1.51-10.24-3.68-18.72-.12-.25-.02-.55.23-.67.25-.12.55-.02.67.23,4.31,8.72,3.79,19.11,3.78,19.22-.01.27-.24.47-.5.47Z"/>
        </g>
        <g>
          <path class="cls-5" d="m158.03,137.06c-3.15-3.72-6.5-13.81-2.78-16.96,3.72-3.15,13.12,1.82,16.27,5.55,3.15,3.73,2.69,9.3-1.04,12.45-3.72,3.15-9.3,2.69-12.45-1.04Z"/>
          <path class="cls-4" d="m167.74,135.36c-.19,0-.36-.1-.45-.28-.04-.09-4.54-9.19-12.32-14.56-.23-.16-.28-.47-.13-.7.16-.23.47-.29.7-.13,8.01,5.53,12.61,14.85,12.65,14.95.12.25.02.55-.23.67-.07.03-.14.05-.22.05Z"/>
        </g>
        <g>
          <path class="cls-3" d="m149.9,75.24c1.44-3.15,6.91-8.36,10.07-6.92,3.15,1.44,2.8,8.99,1.35,12.14-1.44,3.15-5.17,4.54-8.32,3.1-3.15-1.44-4.54-5.17-3.1-8.32Z"/>
          <path class="cls-4" d="m154.26,81.31c-.11,0-.22-.04-.31-.11-.22-.17-.25-.49-.08-.7.04-.06,4.52-5.67,5.61-12.26.04-.27.3-.46.57-.41.27.05.46.3.41.58-1.14,6.86-5.63,12.49-5.82,12.73-.1.12-.24.19-.39.19Z"/>
        </g>
      </g>
    </g>
  </g>
</svg>