<?xml version="1.0" encoding="UTF-8"?>
<svg id="Layer_2" data-name="Layer 2" xmlns="http://www.w3.org/2000/svg" viewBox="0 0 136.67 196.79">
  <defs>
    <style>
      .cls-1 {
        fill: #f993c6;
      }

      .cls-1, .cls-2, .cls-3, .cls-4, .cls-5, .cls-6, .cls-7, .cls-8 {
        stroke-width: 0px;
      }

      .cls-2 {
        fill: #7a3920;
      }

      .cls-3 {
        fill: #a2c255;
      }

      .cls-4 {
        fill: #357036;
      }

      .cls-5 {
        fill: #db5717;
      }

      .cls-6 {
        fill: #7ea844;
      }

      .cls-7 {
        fill: #fff;
      }

      .cls-8 {
        fill: #f27bb1;
      }
    </style>
  </defs>
  <g id="OBJECTS">
    <g>
      <g>
        <path class="cls-8" d="m108.75,122.78H39.22l1.83,30.42c.82,13.66,5.52,26.85,13.82,37.73,1.02,1.34,2.04,2.56,3,3.56h0c0,1.27,7.22,2.3,16.13,2.3s16.13-1.03,16.13-2.3h.05c.99-1.03,2.03-2.28,3.08-3.67,8.3-10.93,13.01-24.17,13.79-37.87l1.73-30.17Z"/>
        <ellipse class="cls-1" cx="73.98" cy="122.78" rx="34.77" ry="4.97"/>
        <ellipse class="cls-2" cx="73.85" cy="122.78" rx="27.25" ry="2.89"/>
        <path class="cls-7" d="m73.98,167.28c-13.26,0-32.98-1.37-32.98-5.14,0-.28.22-.5.5-.5s.5.22.5.5c0,1.73,12.17,4.14,31.98,4.14s31.98-2.41,31.98-4.14c0-.28.22-.5.5-.5s.5.22.5.5c0,3.77-19.72,5.14-32.98,5.14Z"/>
        <path class="cls-7" d="m73.98,162.61c-13.44,0-33.44-1.39-33.44-5.21,0-.28.22-.5.5-.5s.5.22.5.5c0,1.76,12.34,4.21,32.44,4.21s32.44-2.45,32.44-4.21c0-.28.22-.5.5-.5s.5.22.5.5c0,3.82-20,5.21-33.44,5.21Z"/>
      </g>
      <g>
        <g>
          <path class="cls-3" d="m113.9,46.97c-5.78-3.9-11.97,2.93-11.97,2.93,0,0,13.52-27.19,4.02-33.8-7.74-5.39-16.35,6.87-23.5,22.07-2.02-1.61-5.47-2.98-10.29-.1-8.18,4.9-17.85,58.77,2.12,82.56,0,0,9.98-21.16,25.91-40.85,9.38-11.6,23.77-26.04,13.72-32.82Z"/>
          <path class="cls-4" d="m74.28,121.14c-.27,0-.49-.21-.5-.48-2.62-52.79,27.1-97.32,27.4-97.76.16-.23.47-.29.69-.13.23.15.29.47.13.69-.3.44-29.83,44.71-27.23,97.15.01.28-.2.51-.47.52,0,0-.02,0-.02,0Z"/>
        </g>
        <g>
          <path class="cls-4" d="m61.9,25.81C59.8,7.63,48.8.07,48.8.07c-4.07,1.55-8,9.2.62,46.09,0,0,0,0,0,0,2.77.58,5.13,1.81,7.04,3.19,0,0,7.53-5.36,5.43-23.54Z"/>
          <path class="cls-6" d="m71.39,59.48C70.92,21.57,54.55-1.42,48.8.07c0,0,10.99,7.56,13.1,25.74,2.1,18.18-5.43,23.54-5.43,23.54-1.91-1.38-4.27-2.61-7.04-3.19-2.69-.56-5.76-.51-9.2.63-13.93,4.62,25.08,55.77,25.08,55.77,0,0,6.54-5.16,6.07-43.07Z"/>
        </g>
        <g>
          <path class="cls-3" d="m67.37,105.2s-25.21-32.25-51.79-40.95C-11.01,55.54-.83,41.06,25.58,47.1c26.41,6.04,36.82,40.77,36.82,40.77,0,0-43.75-36.34-39.56-46.24s26.99-5.86,37.05,17.54c10.06,23.4,7.49,46.03,7.49,46.03Z"/>
          <path class="cls-4" d="m67.37,105.7c-.22,0-.42-.15-.48-.37-10.09-38.13-43.39-58.06-43.73-58.26-.24-.14-.32-.45-.18-.68.14-.24.45-.32.68-.18.34.2,33.99,20.32,44.19,58.86.07.27-.09.54-.36.61-.04.01-.09.02-.13.02Z"/>
        </g>
        <path class="cls-3" d="m73.83,121.75s16.4-42.73,53.6-42.01c37.2.72-49.7,36.92-53.6,42.01Z"/>
        <path class="cls-4" d="m73.83,122.25c-.11,0-.21-.03-.31-.1-.22-.17-.26-.48-.09-.7.27-.35,27.2-34.86,56.64-42.05.27-.07.54.1.6.37.07.27-.1.54-.37.6-29.11,7.1-55.82,41.34-56.09,41.69-.1.13-.25.19-.4.19Z"/>
        <g>
          <path class="cls-4" d="m26.22,81.33h0s-5.7,7.38,9.55,12.13c0,0,0,0,0,0,.93-4.98,3.45-8.28,3.45-8.28-5.14-.74-9.43-2.11-13-3.84Z"/>
          <path class="cls-6" d="m33.11,74.73c-22.88-8.32-23.76-12.04-23.76-12.04,0,0,3.02,11.94,16.87,18.64,3.57,1.73,7.86,3.11,13,3.84,0,0-2.52,3.31-3.45,8.28-.95,5.11-.22,11.98,6.66,18.84,13.58,13.54,32.62,9.98,32.62,9.98,0,0-12.21-36.73-41.95-47.55Z"/>
        </g>
      </g>
      <g>
        <path class="cls-5" d="m59.77,138.36c0,1.27-1.03,2.3-2.3,2.3s-2.3-1.03-2.3-2.3,1.03-2.3,2.3-2.3,2.3,1.03,2.3,2.3Z"/>
        <path class="cls-5" d="m81.83,138.36c0,1.27-1.03,2.3-2.3,2.3s-2.3-1.03-2.3-2.3,1.03-2.3,2.3-2.3,2.3,1.03,2.3,2.3Z"/>
        <circle class="cls-5" cx="68.49" cy="147.35" r="2.3"/>
        <circle class="cls-5" cx="90.55" cy="147.35" r="2.3"/>
        <path class="cls-5" d="m103.89,138.36c0,1.27-1.03,2.3-2.3,2.3s-2.3-1.03-2.3-2.3,1.03-2.3,2.3-2.3,2.3,1.03,2.3,2.3Z"/>
        <circle class="cls-5" cx="46.43" cy="147.35" r="2.3"/>
        <g>
          <path class="cls-5" d="m67.37,174.92c0,.96-.78,1.74-1.74,1.74s-1.74-.78-1.74-1.74.78-1.74,1.74-1.74,1.74.78,1.74,1.74Z"/>
          <path class="cls-5" d="m84.08,174.92c0,.96-.78,1.74-1.74,1.74s-1.74-.78-1.74-1.74.78-1.74,1.74-1.74,1.74.78,1.74,1.74Z"/>
          <circle class="cls-5" cx="73.98" cy="181.73" r="1.74"/>
          <circle class="cls-5" cx="57.27" cy="181.73" r="1.74"/>
          <path class="cls-5" d="m100.79,174.92c0,.96-.78,1.74-1.74,1.74s-1.74-.78-1.74-1.74.78-1.74,1.74-1.74,1.74.78,1.74,1.74Z"/>
          <circle class="cls-5" cx="90.69" cy="181.73" r="1.74"/>
          <circle class="cls-5" cx="48.92" cy="174.92" r="1.74"/>
        </g>
      </g>
    </g>
  </g>
</svg>